<svg width="49" height="45" viewBox="0 0 49 45" fill="none" xmlns="http://www.w3.org/2000/svg">
<path d="M22.8771 0.295898C16.2176 0.295943 11.155 1.92639 7.51087 5.15723C3.86536 8.38936 1.59934 13.2592 0.607552 19.8213C-0.38057 26.3592 1.0198 32.5847 4.30775 37.1689C7.59159 41.7474 12.7673 44.704 19.3771 44.7041C26.0039 44.7041 33.1603 41.8005 38.6603 37.2168C44.161 32.6323 47.9649 26.4028 47.965 19.7773C47.965 13.1381 45.0237 8.28172 40.4298 5.0752C35.8245 1.86078 29.5431 0.295898 22.8771 0.295898Z" fill="#E54C31" stroke="#E54C31" stroke-width="0.592105"/>
<path d="M32 17L23.747 25.7115C23.3448 26.1361 22.6657 26.1264 22.2758 25.6906L14.5 17" stroke="#FDF7E8" stroke-width="4" stroke-linecap="round"/>
</svg>
