<svg width="49" height="45" viewBox="0 0 49 45" fill="none" xmlns="http://www.w3.org/2000/svg">
<path d="M25.3838 43.5C31.8502 43.5 36.5929 41.9197 39.9512 38.9424C43.3167 35.9586 45.497 31.3897 46.4629 24.999C47.4103 18.7308 46.0571 12.8299 42.9746 8.53223C39.9129 4.26368 35.0986 1.50012 28.8838 1.5C22.5832 1.5 15.6925 4.27402 10.3721 8.70801C5.0467 13.1462 1.50011 19.0659 1.5 25.2227C1.5 31.4486 4.23174 35.9446 8.51953 38.9375C12.8657 41.9712 18.8839 43.5 25.3838 43.5Z" stroke="#E54C31" stroke-width="3"/>
<path d="M16.2609 20L24.5139 28.7115C24.9161 29.1361 25.5952 29.1264 25.9851 28.6906L33.7609 20" stroke="black" stroke-width="4" stroke-linecap="round"/>
</svg>
