<svg width="1920" height="1361" viewBox="0 0 1920 1361" fill="none" xmlns="http://www.w3.org/2000/svg">
<path d="M-337.45 504.551C-185.266 483.714 -90.5343 453.638 241.977 453.463C795 518 622.683 328.764 980.5 279.5C1212.26 227.415 1720.89 247.194 1953.98 361.692C2320.78 541.883 2085.4 477.69 2841.88 760.42C3448.76 987.28 3285.54 1344.42 2829.41 1360.42C2363.02 1376.78 2135.85 1660.29 2161.83 2114.26C2165.59 2179.8 1954.21 1752.32 1679.01 1713.92C1271.82 1657.12 767.526 2324.76 192.671 2256.88C-209.342 2209.41 -377.255 1245.53 -643.273 963.497C-824.59 771.244 -728.43 558.076 -337.45 504.551Z" fill="#FFDFA3"/>
<path d="M698 523.5C988.462 533.195 1253.13 335.751 1679.57 365.351C1746.41 369.99 1864.61 373.514 1934.38 373.152C2121.85 372.18 2203.35 356.229 2254.68 334.143C2366.57 285.991 2592.17 268.83 2490.31 241.197C2436.42 226.573 2307.06 224.03 2232.16 226.436C2051.27 232.246 1993.67 235.213 1934.04 213.304C1710.94 131.334 740.998 125.815 921.797 221.509C964.658 244.194 1014.29 258.693 922.778 276.901C855.649 290.255 850.294 304.2 809 317.5C726.747 343.994 546.5 492 698 523.5Z" fill="#FFDFA3"/>
<path d="M700.5 382.5C792 316 830.5 296.5 912 279.5C811 308 740 377.5 674 426.5C556.765 513.538 450.235 494.599 286.735 493.5C16.1925 491.682 -40.9665 517.687 -38.6059 535.828L-36.2654 541C-37.5383 539.379 -38.3698 537.643 -38.6059 535.828L-67.2654 472.5C-87.4321 452.167 -53.6654 418.7 242.735 447.5C613.235 483.5 630 423.5 700.5 382.5Z" fill="#E95738"/>
<path d="M964.257 393.978C1150.19 406.769 1114.9 374.828 1378.45 409.531C1419.75 414.97 1495.68 419.739 1541.99 420.022C1666.44 420.785 1730.08 405.024 1777.56 382.62C1881.06 333.775 2040.64 318.12 1990.33 288.521C1963.71 272.856 1879.81 269 1828.85 270.785C1705.77 275.098 1665.9 277.63 1639.96 254.361C1542.93 167.305 905.532 152.426 966.19 253.306C980.57 277.22 1004.45 292.715 932.81 310.72C880.257 323.926 893.009 320.86 857.558 334.254C786.943 360.934 828.158 381.513 964.257 393.978Z" fill="#F6C100"/>
</svg>
