<svg width="962" height="254" viewBox="0 0 962 254" fill="none" xmlns="http://www.w3.org/2000/svg">
<path d="M832.977 176.687C830.855 82.9254 830.967 81.7135 831.004 81.3096C832.65 81.1896 834.578 80.9599 836.507 80.7302C855.384 78.3958 881.333 79.1573 885.719 102.512C889.129 120.208 880.636 139.932 855.864 142.673C859.15 173.531 859.076 174.339 858.253 174.399L832.977 176.687ZM850.86 96.4477L852.162 122.234C858.24 122.794 863.832 118.285 864.49 111.148C865.048 105.088 862.637 97.2613 855.072 96.5642C854.532 96.5144 851.548 96.3753 850.86 96.4477Z" fill="#1A1A1A"/>
<path d="M749.194 167.545L781.354 78.8893L815.819 82.0653L829.775 171.723L807.068 171.119L799.642 134.842L787.158 134.233L777.603 168.404L749.194 167.545ZM792.956 94.9803L788.667 117.862L799.012 119.492L800.5 95.9461L792.956 94.9803Z" fill="#1A1A1A"/>
<path d="M729.321 162.874L721.455 109.947L708.006 142.605L685.374 139.571L673.029 110.23L663.549 155.728C663.537 155.863 651.095 155.53 641.05 154.197L659.319 67.7482L677.676 68.6262C678.554 70.8765 696.765 110.113 699.036 111.949L711.033 77.3947L741.197 78.1405L750.53 160.761L729.321 162.874Z" fill="#1A1A1A"/>
<path d="M555.844 211.782L503.53 212.886C504.407 201.827 505.306 174.995 503.743 12.0042L554.541 10.3888C551.325 16.8157 552.167 64.3829 551.386 82.5787L552.061 84.0293L583.483 11.766L641.284 13.0371L593.619 114.468L648.097 201.032L589.782 206.634C578.945 182.831 570.102 157.429 556.034 134.399L555.844 211.782Z" fill="#E54C31"/>
<path d="M392.293 212.782L342.894 218.189L334.138 27.325L390.276 25.4146L437.635 107.015L438.261 107.576C438.196 106.389 438.56 102.203 436.525 22.2648L484.207 23.4997L485.222 198.126L438.296 205.182L385.614 118.816L392.293 212.782Z" fill="#E54C31"/>
<path d="M163.99 134.629C160.037 73.8423 180.259 25.1117 245.232 21.5229C301.008 18.4421 325.666 66.1817 328.024 114.26C330.626 172.146 291.405 205.559 250.298 210.21C209.767 214.532 167.696 190.965 163.99 134.629ZM209.796 123.469C211.173 148.39 226.908 163.888 248.269 162.708C296.628 160.037 294.48 72.6656 244.591 69.172C221.45 70.4502 208.767 94.0648 209.796 123.469Z" fill="#E54C31"/>
<path d="M23.4548 247.142C22.8614 247.175 21.5487 228.797 2.32275 47.7365C20.4599 25.9037 126.262 12.6201 129.605 73.1429C131.096 100.141 119.011 113.009 95.3891 121.754C125.698 126.329 155.163 142.557 156.998 175.785C160.865 245.801 32.8666 245.134 23.4548 247.142ZM59.4641 155.58L64.6234 205.884C103.012 200.49 109.988 186.714 108.874 166.539C107.53 142.212 73.8065 145.86 59.4641 155.58ZM45.1017 73.3466L49.8547 105.521C62.0186 104.849 86.8595 96.6325 84.3765 78.6169C81.3182 55.5742 44.7395 72.1763 45.1017 73.3466Z" fill="#E54C31"/>
<path d="M934.13 20.6746C944.418 23.682 951.764 35.0016 953.668 40.3068C955.063 43.0233 949.699 46.7059 947.161 48.7003C938.417 55.9325 920.08 70.9626 916.682 73.2257C912.435 76.0545 910.826 79.8599 902.452 72.7603C895.753 67.0807 896.796 61.1992 898.155 58.9684C902.269 54.1568 910.372 44.7669 918.516 35.2992C928.696 23.4646 932.259 20.1278 934.13 20.6746Z" fill="#E54C31"/>
<path d="M951.552 68.7277C953.846 71.1769 953.742 74.339 953.404 75.614C948.808 80.3019 938.215 88.8064 932.609 85.3209C925.602 80.9639 929.916 76.9232 931.427 76.0824L931.427 76.0823C932.939 75.2414 940.496 71.0371 943.557 68.1695C946.619 65.3019 948.684 65.6662 951.552 68.7277Z" fill="#E54C31"/>
<path d="M889.368 55.262C885.834 54.04 884.293 50.8699 883.965 49.4375C886.058 42.4296 892.08 28.5446 899.415 29.0674C908.585 29.7209 906.432 35.9444 905.38 37.5583L905.38 37.5584C904.327 39.1724 899.064 47.242 897.537 51.6586C896.009 56.0753 893.784 56.7893 889.368 55.262Z" fill="#E54C31"/>
</svg>
