<svg width="1789" height="488" viewBox="0 0 1789 488" fill="none" xmlns="http://www.w3.org/2000/svg">
<path d="M1466.17 383.316L1445.69 12.0129C1445.69 12.0129 1447.91 10.9933 1636.11 6.30532L1642.17 87.4093L1529.63 85.315L1532.69 141.174L1604.19 144.64L1601.65 221.086L1537.77 218.966L1546.31 290.86C1558.33 291.258 1656.65 293.428 1663.17 294.737L1665.65 368.07L1466.17 383.316Z" fill="#FFF6DC"/>
<path d="M1235.27 370.042L1225.39 287.999C1244.17 256.862 1263.44 226.219 1327.19 115.016L1204.63 121.936L1193.76 43.8465L1426.03 27.0425L1435.91 113.039L1332.13 268.229L1439.37 256.368L1452.71 344.836V346.319L1235.27 370.042Z" fill="#FFF6DC"/>
<path d="M1115.25 384.239L1023.27 386.837L1026.39 95.6955L953.629 94.1364L957.787 12.0259L1185.41 22.4196L1179.17 105.57L1113.69 101.932L1115.25 384.239Z" fill="#FFF6DC"/>
<path d="M840.07 29.6952C861.897 29.6952 916.464 30.7346 933.094 31.7739C933.094 33.333 934.653 52.0417 944.007 285.381L999.094 290.058V363.334L856.18 368.011C854.621 368.011 853.582 368.011 840.07 29.6952Z" fill="#FFF6DC"/>
<path d="M665.609 6.98004C687.436 6.98004 742.003 8.0194 758.633 9.05879C758.633 10.6178 760.192 52.0417 769.547 285.381L824.633 290.058V363.334L681.719 368.011C680.16 368.011 679.121 345.296 665.609 6.98004Z" fill="#FFF6DC"/>
<path d="M356.707 367.492L448.172 15.6637H580.692L665.401 355.019L578.613 360.736L537.558 224.058L489.747 226.137L465.322 360.736L356.707 367.492ZM498.062 73.3489L489.747 162.735L529.763 165.334L527.164 74.3883L498.062 73.3489Z" fill="#FFF6DC"/>
<path d="M126.781 379.444C125.741 379.444 125.222 347.224 109.111 29.1755C142.891 -7.2026 328.939 -20.1948 328.939 85.8214C328.939 133.113 306.592 154.42 264.498 167.412C316.986 178.326 366.876 209.507 366.876 267.712C366.876 390.358 143.411 376.846 126.781 379.444ZM198.498 223.019L202.655 311.365C270.214 305.649 283.726 282.263 283.726 246.924C283.726 204.31 224.482 207.428 198.498 223.019ZM181.348 78.0261L186.545 134.672C207.852 134.672 252.025 122.719 249.427 91.0182C246.309 50.4827 180.828 75.9473 181.348 78.0261Z" fill="#FFF6DC"/>
<path d="M1760.28 462.225C1773.64 456.947 1782.04 440.945 1783.92 433.634C1785.45 429.839 1777.84 425.589 1774.21 423.241C1761.66 414.673 1735.35 396.886 1730.54 394.286C1724.53 391.037 1721.91 386.16 1711.62 396.66C1703.38 405.061 1705.5 412.776 1707.59 415.584C1713.67 421.495 1725.63 433.02 1737.66 444.644C1752.69 459.173 1757.86 463.185 1760.28 462.225Z" fill="#FFF6DC"/>
<path d="M1777.6 395.99C1780.36 392.441 1779.83 388.236 1779.22 386.577C1772.51 380.891 1757.34 370.854 1750.29 376.193C1741.48 382.867 1747.73 387.725 1749.85 388.66C1751.97 389.595 1762.57 394.272 1767.01 397.719C1771.44 401.167 1774.15 400.426 1777.6 395.99Z" fill="#FFF6DC"/>
<path d="M1439.74 423.151L1439.58 377.906C1440.02 371.757 1435.99 369.969 1433.92 369.844C1427.49 368.724 1423.24 374.536 1421.92 377.583L1415.78 421.284C1414.55 426.322 1417.09 428.916 1418.52 429.584L1428.75 436.097C1436.27 439.009 1439.21 428.68 1439.74 423.151Z" fill="#FFF6DC"/>
<path d="M1702.73 164.144C1710.26 160.522 1711.16 152.72 1710.66 149.272C1709.17 148.478 1697.77 151.949 1690.93 154.032C1684.09 156.114 1680.45 160.543 1680.79 167.087C1681.05 172.322 1685.35 172.066 1687.46 171.284C1689.41 170.413 1695.19 167.767 1702.73 164.144Z" fill="#FFF6DC"/>
<path d="M28.5093 483.367C16.2209 480.928 6.50057 468.508 3.73646 462.528C1.83198 459.51 7.69594 454.669 10.4452 452.085C19.8783 442.763 39.6751 423.372 43.3972 420.387C48.0499 416.655 49.5295 412.059 60.0115 419.46C68.3971 425.38 67.7898 432.335 66.438 435.073C62.1448 441.099 53.6813 452.867 45.1769 464.73C34.5465 479.558 30.7435 483.811 28.5093 483.367Z" fill="#FFF6DC"/>
<path d="M13.0257 417.556C11.2668 415.259 11.6258 412.554 12.0252 411.489C16.3693 407.86 26.1853 401.469 30.697 404.938C36.3366 409.276 32.2898 412.374 30.9211 412.966C29.5525 413.559 22.7093 416.52 19.8374 418.719C16.9654 420.917 15.2244 420.428 13.0257 417.556Z" fill="#FFF6DC"/>
<path d="M26.6049 117.792C19.3633 113.614 19.0602 105.767 19.8138 102.366C21.3565 101.687 32.4653 106.004 39.1305 108.595C45.7958 111.186 49.0879 115.875 48.2663 122.376C47.609 127.576 43.344 126.998 41.2936 126.059C39.4147 125.044 33.8464 121.971 26.6049 117.792Z" fill="#FFF6DC"/>
</svg>
