<svg width="1207" height="387" viewBox="0 0 1207 387" fill="none" xmlns="http://www.w3.org/2000/svg">
<path d="M7.4769 125.562C3.52396 83.8819 35.3636 47.4238 77.1964 45.7294L1127.15 3.20188C1169.74 1.47671 1204.75 36.4591 1203.05 79.0524L1193.56 316.91C1191.99 356.064 1159.8 387 1120.61 387H98.6759C61.0291 387 29.5564 358.371 26.002 320.892L7.4769 125.562Z" fill="#E54C31"/>
<path d="M555.989 223.326C555.989 216.413 554.208 210.129 550.647 204.473C547.295 198.818 542.163 194.314 535.251 190.962C528.547 187.401 520.169 185.621 510.114 185.621C498.802 185.621 487.805 186.563 477.121 188.449C466.648 190.334 457.221 192.533 448.842 195.047C440.673 197.351 433.865 199.341 428.419 201.017C423.81 202.274 418.678 204.054 413.022 206.359C407.576 208.453 402.548 210.339 397.94 212.015L386 167.082C391.446 166.663 397.312 165.93 403.596 164.883C409.88 163.835 415.536 162.788 420.563 161.741C428.314 159.855 437.112 157.865 446.957 155.771C457.012 153.466 467.905 151.476 479.635 149.801C491.366 148.125 503.306 147.287 515.455 147.287C532.213 147.287 546.877 150.429 559.445 156.713C572.223 162.788 582.173 171.586 589.295 183.107C596.417 194.628 599.978 208.558 599.978 224.897C599.978 241.655 596.313 256.842 588.981 270.458C581.649 284.074 571.28 296.014 557.874 306.278C544.468 316.333 528.652 324.712 510.428 331.415C492.204 338.118 472.199 342.936 450.413 345.869L427.79 306.907C447.271 304.602 464.867 301.251 480.578 296.852C496.498 292.453 510.009 286.902 521.111 280.199C532.423 273.286 541.011 265.221 546.877 256.004C552.951 246.578 555.989 235.685 555.989 223.326ZM432.503 72.5044C441.511 74.3897 452.299 76.1702 464.867 77.846C477.645 79.5218 490.737 80.9881 504.144 82.245C517.76 83.5018 530.642 84.5492 542.792 85.3871C555.151 86.0155 565.415 86.4345 573.585 86.6439L567.3 125.292C558.083 124.664 547.295 123.826 534.936 122.778C522.577 121.731 509.8 120.579 496.603 119.322C483.406 117.856 470.628 116.389 458.269 114.923C446.119 113.247 435.436 111.676 426.219 110.21L432.503 72.5044Z" fill="#E95738"/>
<path d="M295.959 100.155V121.836H335.549V100.155H295.959ZM226.204 100.155V121.836H264.538V100.155H226.204ZM157.391 100.155V121.836H194.783V100.155H157.391ZM122.514 72.1904H372.312V149.801H122.514V72.1904ZM177.501 224.269V239.665H315.44V224.269H177.501ZM177.501 261.974V277.685H315.44V261.974H177.501ZM177.501 186.878V201.96H315.44V186.878H177.501ZM139.481 162.998H355.031V301.251H139.481V162.998ZM263.909 317.904L294.073 298.737C305.804 302.508 317.744 306.593 329.894 310.992C342.253 315.391 353.983 319.789 365.085 324.188C376.188 328.378 385.719 332.253 393.679 335.814L352.831 354.667C346.337 351.106 338.273 347.231 328.637 343.041C319.21 338.852 308.946 334.557 297.844 330.158C286.742 325.759 275.43 321.675 263.909 317.904ZM194.468 298.423L228.717 313.819C220.129 319.475 210.074 324.922 198.553 330.158C187.032 335.395 175.092 340.108 162.733 344.298C150.583 348.697 139.062 352.467 128.17 355.61C126.075 352.886 123.352 349.744 120 346.183C116.648 342.832 113.192 339.48 109.631 336.128C106.07 332.777 102.928 330.054 100.205 327.959C111.516 325.864 123.037 323.351 134.768 320.418C146.499 317.276 157.496 313.819 167.76 310.049C178.234 306.278 187.137 302.403 194.468 298.423Z" fill="#E95738"/>
<path d="M1107.48 223.326C1107.48 216.413 1105.69 210.129 1102.13 204.473C1098.78 198.818 1093.65 194.314 1086.74 190.962C1080.03 187.401 1071.66 185.621 1061.6 185.621C1050.29 185.621 1039.29 186.563 1028.61 188.449C1018.13 190.334 1008.71 192.533 1000.33 195.047C992.16 197.351 985.352 199.341 979.905 201.017C975.297 202.274 970.165 204.054 964.509 206.359C959.063 208.453 954.035 210.339 949.427 212.015L937.487 167.082C942.933 166.663 948.798 165.93 955.083 164.883C961.367 163.835 967.023 162.788 972.05 161.741C979.801 159.855 988.599 157.865 998.444 155.771C1008.5 153.466 1019.39 151.476 1031.12 149.801C1042.85 148.125 1054.79 147.287 1066.94 147.287C1083.7 147.287 1098.36 150.429 1110.93 156.713C1123.71 162.788 1133.66 171.586 1140.78 183.107C1147.9 194.628 1151.47 208.558 1151.47 224.897C1151.47 241.655 1147.8 256.842 1140.47 270.458C1133.14 284.074 1122.77 296.014 1109.36 306.278C1095.95 316.333 1080.14 324.712 1061.91 331.415C1043.69 338.118 1023.69 342.936 1001.9 345.869L979.277 306.907C998.758 304.602 1016.35 301.251 1032.06 296.852C1047.98 292.453 1061.5 286.902 1072.6 280.199C1083.91 273.286 1092.5 265.221 1098.36 256.004C1104.44 246.578 1107.48 235.685 1107.48 223.326ZM983.99 72.5044C992.998 74.3897 1003.79 76.1702 1016.35 77.846C1029.13 79.5218 1042.22 80.9881 1055.63 82.245C1069.25 83.5018 1082.13 84.5492 1094.28 85.3871C1106.64 86.0155 1116.9 86.4345 1125.07 86.6439L1118.79 125.292C1109.57 124.664 1098.78 123.826 1086.42 122.778C1074.06 121.731 1061.29 120.579 1048.09 119.322C1034.89 117.856 1022.11 116.389 1009.76 114.923C997.606 113.247 986.923 111.676 977.706 110.21L983.99 72.5044Z" fill="#E95738"/>
<path d="M818.754 100.155V121.836H858.345V100.155H818.754ZM748.999 100.155V121.836H787.333V100.155H748.999ZM680.187 100.155V121.836H717.578V100.155H680.187ZM645.309 72.1904H895.108V149.801H645.309V72.1904ZM700.296 224.269V239.665H838.235V224.269H700.296ZM700.296 261.974V277.685H838.235V261.974H700.296ZM700.296 186.878V201.96H838.235V186.878H700.296ZM662.276 162.998H877.826V301.251H662.276V162.998ZM786.704 317.904L816.869 298.737C828.599 302.508 840.539 306.593 852.689 310.992C865.048 315.391 876.779 319.789 887.881 324.188C898.983 328.378 908.514 332.253 916.474 335.814L875.626 354.667C869.133 351.106 861.068 347.231 851.432 343.041C842.006 338.852 831.741 334.557 820.639 330.158C809.537 325.759 798.226 321.675 786.704 317.904ZM717.264 298.423L751.513 313.819C742.924 319.475 732.869 324.922 721.348 330.158C709.827 335.395 697.887 340.108 685.528 344.298C673.379 348.697 661.858 352.467 650.965 355.61C648.87 352.886 646.147 349.744 642.795 346.183C639.444 342.832 635.987 339.48 632.426 336.128C628.865 332.777 625.723 330.054 623 327.959C634.312 325.864 645.833 323.351 657.563 320.418C669.294 317.276 680.291 313.819 690.556 310.049C701.029 306.278 709.932 302.403 717.264 298.423Z" fill="#E95738"/>
</svg>
