<svg width="82" height="77" viewBox="0 0 82 77" fill="none" xmlns="http://www.w3.org/2000/svg">
<path d="M81.1073 43.4063C84.4788 21.0985 71.5669 0.807617 48.9119 0.807617C26.257 0.807617 0.131104 20.6372 0.131104 43.4063C0.131104 66.1755 20.3461 76.8076 43.001 76.8076C65.656 76.8076 77.7357 65.7142 81.1073 43.4063Z" fill="#FFD000"/>
<g clip-path="url(#clip0_1_255)">
<path d="M61.5 41.7035C62.1703 41.0323 62.5469 40.1225 62.5469 39.1739C62.5469 38.2252 62.1703 37.3154 61.5 36.6442L48.0021 23.1391C47.3305 22.4676 46.4197 22.0903 45.47 22.0903C44.5203 22.0903 43.6095 22.4676 42.938 23.1391C42.2664 23.8107 41.8892 24.7215 41.8892 25.6712C41.8892 26.6209 42.2664 27.5317 42.938 28.2032L50.3265 35.5941L22.7985 35.5941C21.8491 35.5941 20.9386 35.9713 20.2673 36.6426C19.596 37.3139 19.2188 38.2245 19.2188 39.1739C19.2188 40.1233 19.596 41.0338 20.2673 41.7051C20.9386 42.3764 21.8491 42.7536 22.7985 42.7536L50.3265 42.7536L42.938 50.1421C42.6055 50.4746 42.3417 50.8693 42.1618 51.3038C41.9818 51.7382 41.8892 52.2039 41.8892 52.6741C41.8892 53.1444 41.9818 53.61 42.1618 54.0445C42.3417 54.4789 42.6055 54.8737 42.938 55.2062C43.2705 55.5387 43.6652 55.8025 44.0997 55.9824C44.5341 56.1624 44.9998 56.255 45.47 56.255C45.9403 56.255 46.4059 56.1624 46.8404 55.9824C47.2748 55.8025 47.6696 55.5387 48.0021 55.2062L61.5 41.7035Z" fill="#1A1A1A"/>
</g>
<defs>
<clipPath id="clip0_1_255">
<rect width="57.2754" height="57.2754" fill="white" transform="translate(12.2468 10.7209)"/>
</clipPath>
</defs>
</svg>
