<svg width="83" height="77" viewBox="0 0 83 77" fill="none" xmlns="http://www.w3.org/2000/svg">
<path d="M81.5999 43.4063C84.9715 21.0985 72.0595 0.807617 49.4046 0.807617C26.7496 0.807617 0.623718 20.6372 0.623718 43.4063C0.623718 66.1755 20.8387 76.8076 43.4937 76.8076C66.1486 76.8076 78.2284 65.7142 81.5999 43.4063Z" fill="#FFD000"/>
<g clip-path="url(#clip0_1_261)">
<path d="M20.7617 41.7035C20.0913 41.0323 19.7148 40.1225 19.7148 39.1739C19.7148 38.2252 20.0913 37.3154 20.7617 36.6442L34.2596 23.1391C34.9311 22.4676 35.8419 22.0903 36.7916 22.0903C37.7413 22.0903 38.6521 22.4676 39.3237 23.1391C39.9952 23.8107 40.3725 24.7215 40.3725 25.6712C40.3725 26.6209 39.9952 27.5317 39.3237 28.2032L31.9352 35.5941L59.4631 35.5941C60.4125 35.5941 61.323 35.9713 61.9944 36.6426C62.6657 37.3139 63.0428 38.2245 63.0428 39.1739C63.0428 40.1233 62.6657 41.0338 61.9944 41.7051C61.323 42.3764 60.4125 42.7536 59.4631 42.7536L31.9352 42.7536L39.3237 50.1421C39.6562 50.4746 39.9199 50.8693 40.0999 51.3038C40.2799 51.7382 40.3725 52.2039 40.3725 52.6741C40.3725 53.1444 40.2799 53.61 40.0999 54.0445C39.9199 54.4789 39.6562 54.8737 39.3237 55.2062C38.9912 55.5387 38.5964 55.8025 38.162 55.9824C37.7275 56.1624 37.2619 56.255 36.7916 56.255C36.3214 56.255 35.8557 56.1624 35.4213 55.9824C34.9868 55.8025 34.5921 55.5387 34.2596 55.2062L20.7617 41.7035Z" fill="#1A1A1A"/>
</g>
<defs>
<clipPath id="clip0_1_261">
<rect width="57.2754" height="57.2754" fill="white" transform="matrix(-1 0 0 1 70.0148 10.7209)"/>
</clipPath>
</defs>
</svg>
