<svg width="1554" height="411" viewBox="0 0 1554 411" fill="none" xmlns="http://www.w3.org/2000/svg">
<path d="M1352.18 343.596L1281.13 344.06C1286.41 323.339 1297.55 300.12 1303.21 277.945C1303.21 277.58 1303.22 276.123 1303.23 275.395C1286.35 247.555 1240.23 149.139 1211.5 101.52L1299.32 100.111L1340.96 211.969C1341.32 211.972 1341.32 211.972 1341.68 211.975L1389.26 105.644L1461.25 122.313C1460.15 123.396 1415.3 210.441 1352.18 343.596Z" fill="#1A1A1A"/>
<path d="M1182.31 298.007C1160.93 325.144 1144.05 339.203 1108.7 339.983C998.346 335.363 1048.05 153.267 1051.31 114.312L1104.8 122.072C1098.03 187.229 1071.36 278.079 1135.84 278.65C1186.48 279.098 1159.82 163.366 1160.74 140.785L1217.95 139.834L1238.77 340.042C1235.12 340.739 1198.29 344.784 1196.11 344.036L1182.31 298.007Z" fill="#1A1A1A"/>
<path d="M856.821 347.954C856.093 347.947 855.929 325.357 846.609 102.297C870.515 77.0043 1001.02 69.0515 1000.36 143.371C1000.07 176.524 984.271 191.322 954.681 200.169C991.409 208.145 1026.19 230.314 1025.83 271.117C1025.07 357.095 868.496 346.235 856.821 347.954ZM908.068 238.741L910.434 300.7C957.83 297.112 967.447 280.801 967.667 256.028C967.931 226.154 926.38 227.972 908.068 238.741ZM896.946 136.991L900.237 176.733C915.174 176.865 946.215 168.76 944.59 146.521C942.656 118.085 896.594 135.53 896.946 136.991Z" fill="#1A1A1A"/>
<path d="M699.954 289.533C698.216 247.2 713.088 213.652 758.326 212.237C797.16 211.023 813.512 244.628 814.352 278.098C815.199 318.391 787.371 340.972 758.71 343.522C730.456 345.853 701.595 328.767 699.954 289.533ZM731.991 282.535C732.533 299.886 743.217 310.924 758.09 310.459C791.76 309.406 791.719 248.618 757.087 245.359C740.975 245.863 731.764 262.072 731.991 282.535Z" fill="#1A1A1A"/>
<path d="M680.461 356.102L645.571 357.813L640.25 253.769L618.321 253.421L616.429 219.364L697.816 216.818L695.667 253.897L672.7 253.374L680.461 356.102Z" fill="#1A1A1A"/>
<path d="M484.23 350.754L447.17 357.744C433.314 304.846 398.307 196.824 387.598 156.506L387.559 156.17C430.63 142.357 431.349 142.274 431.588 142.246L460.8 252.638L461.202 251.911L468.893 166.902L502.723 159.262L555.079 270.395L560.653 141.695C602.777 147.064 603.055 147.372 603.132 148.045C599.976 171.227 593.024 294.296 590.033 337.894C584.446 337.856 545.956 342.968 540.848 342.875L500.985 264.361C500.745 264.389 500.707 264.052 500.467 264.08C501.844 269.711 486.198 336.223 484.23 350.754Z" fill="#E54C31"/>
<path d="M273.011 280.726C264.6 211.875 276.855 155.971 329.317 149.933C374.352 144.749 398.462 198.17 404.491 252.65C411.556 318.25 382.561 357.349 349.573 363.871C317.025 370.001 280.841 344.536 273.011 280.726ZM309.259 266.677C312.509 294.912 326.614 312.02 343.862 310.035C382.908 305.541 373.689 206.471 332.872 204.017C314.187 206.167 305.907 233.345 309.259 266.677Z" fill="#E54C31"/>
<path d="M146.678 409.022L114.951 177.672L157.675 171.392C157.675 171.392 161.218 195.847 170.934 257.055L207.638 249.084C207.638 249.084 207.135 244.714 194.761 179.384L195.163 178.657L239.262 167.45L281.903 371.319L234.598 386.3L217.245 307.239L176.391 315.007L185.885 393.27L185.962 393.942L147.875 408.884L146.678 409.022Z" fill="#E54C31"/>
<path d="M1333.12 11.4994C1324.81 3.25211 1310.11 2.20883 1304.03 3.19104C1300.7 3.29236 1300.01 10.365 1299.45 13.845C1297.15 26.0244 1292.47 51.4941 1292.1 55.9378C1291.64 61.4924 1288.85 65.04 1300.06 69.2955C1309.03 72.6999 1314.1 68.596 1315.52 66.1185C1317.94 59.6437 1322.64 46.9379 1327.39 34.1509C1333.33 18.1672 1334.63 12.9989 1333.12 11.4994Z" fill="#1A1A1A"/>
<path d="M1524.94 222.566L1456.93 238.404C1447.53 239.862 1446.23 246.533 1446.75 249.687C1447.28 259.76 1457.49 264.147 1462.53 265.081L1530.39 259.25C1538.39 259.371 1541.42 254.652 1541.93 252.277L1548.2 234.643C1549.99 222.318 1533.44 221.456 1524.94 222.566Z" fill="#1A1A1A"/>
<path d="M1221.91 37.1291C1217.69 28.6011 1208.8 27.6845 1204.89 28.2922C1204 29.9944 1208.1 42.9241 1210.55 50.6819C1213.01 58.4396 1218.09 62.5201 1225.53 62.0613C1231.49 61.6942 1231.14 56.8089 1230.23 54.4121C1229.21 52.2044 1226.13 45.6571 1221.91 37.1291Z" fill="#1A1A1A"/>
<path d="M86.4696 54.2181C69.5414 56.1595 56.3121 72.3922 52.5878 80.4377C50.0048 84.4381 58.1752 91.9243 62.0106 95.8745C75.1775 110.068 102.808 139.612 107.993 144.241C114.474 150.028 116.587 156.645 130.945 147.536C142.431 140.248 141.486 130.431 139.578 126.434C133.558 117.476 121.692 99.9723 109.768 82.3311C94.8633 60.2795 89.5475 53.8652 86.4696 54.2181Z" fill="#1A1A1A"/>
<path d="M52.4509 127.042C48.4547 130.354 48.2271 135.502 48.6128 137.662C55.4229 146.557 71.4065 163.336 80.8598 159.289C92.6764 154.229 86.2392 146.462 83.9124 144.671L83.9123 144.671C81.5854 142.88 69.9513 133.925 65.383 128.413C60.8147 122.901 57.4461 122.903 52.4509 127.042Z" fill="#1A1A1A"/>
<path d="M474.015 74.5985L466.652 110.915C465.285 115.737 468.187 118.162 469.809 118.772C474.739 121.257 479.076 117.643 480.629 115.526L492.74 81.9987C494.555 78.2637 492.965 75.557 491.942 74.6705L484.894 66.9279C479.397 62.7379 475.351 70.2958 474.015 74.5985Z" fill="#1A1A1A"/>
<path d="M17.2053 334.844C7.19095 334.961 3.04226 343.173 2.21971 347.264C3.5902 348.917 17.9355 350.976 26.5426 352.212C35.1498 353.447 41.0586 350.41 43.3128 342.963C45.1162 337.005 40.1335 335.059 37.4167 334.831C34.8522 334.787 27.2196 334.728 17.2053 334.844Z" fill="#1A1A1A"/>
</svg>
