<svg width="223" height="81" viewBox="0 0 223 81" fill="none" xmlns="http://www.w3.org/2000/svg">
<path d="M158.541 0.0385676C187.574 -0.62126 204.73 7.29711 212.648 15.2153C220.567 23.1336 227.807 37.0284 218.587 56.7856C209.367 76.5428 179.656 77.9007 157.881 71.9849C137.375 66.414 123.569 66.6839 101.134 69.3462C62.602 73.9187 37.1286 88.3156 14.6933 75.2612C-4.68902 63.9831 -8.7861 27.8891 26.5703 15.2153C57.9711 3.95956 86.7431 9.83742 107.072 7.29638C133.466 3.99712 129.507 0.69842 158.541 0.0385676Z" fill="#1A1A1A"/>
<path d="M47.6715 43.0548C47.6435 43.4748 47.6435 46.1348 47.6435 46.1348C48.0635 46.1908 48.4555 46.2188 48.7915 46.2188C50.5275 46.2188 51.1715 45.5468 51.1715 44.5948C51.1715 43.4748 50.1915 42.9988 48.6515 42.9988C48.3435 42.9988 48.0075 43.0268 47.6715 43.0548ZM47.3915 35.9148C47.3635 36.3348 47.3635 38.7148 47.3635 38.7148C47.5595 38.7428 47.7275 38.7428 47.9235 38.7428C49.4355 38.7428 50.2475 38.2108 50.2475 37.2028C50.2475 36.1668 48.9315 35.8588 48.0355 35.8588C47.8115 35.8588 47.5595 35.8868 47.3915 35.9148ZM54.1395 40.5628V40.7308C55.9595 41.0948 57.6675 42.7468 57.6675 45.5748C57.6675 49.3548 54.6435 51.0068 49.6035 51.0068C46.8595 51.0068 41.8475 50.7828 41.7075 50.6708C41.5675 50.5588 41.3435 31.7988 41.4275 31.5748C41.5115 31.3508 46.8035 31.2388 47.3635 31.2388C51.8155 31.2388 56.2955 32.1908 56.2955 36.5588C56.2955 38.8268 55.4275 39.7788 54.1395 40.5628ZM59.6437 31.5748C59.7277 30.9868 65.6917 31.2668 65.8037 31.4628C65.9997 31.7988 65.5237 38.7148 65.5237 41.7668C65.5237 44.3988 66.2237 45.2668 67.8757 45.2668C69.8077 45.2668 70.1997 43.8388 70.1997 41.8788C70.1997 38.8268 69.9757 32.8628 69.9477 31.2668C70.3117 31.0148 76.4997 30.7628 76.5557 31.0428C76.6677 31.5468 76.7797 39.3308 76.7797 42.3268C76.7797 47.3108 75.0157 51.3708 67.9877 51.3708C62.4997 51.3708 59.1957 48.9348 59.1957 42.5788C59.1957 40.1708 59.3917 33.0868 59.6437 31.5748ZM96.0113 32.6948C96.0393 33.0588 90.6913 42.1868 89.9633 43.4188C90.0193 46.1348 90.0473 50.1108 89.8793 50.8108C89.7393 51.3988 83.5793 51.0348 83.5513 50.8108C83.4393 49.5788 83.5793 46.1628 83.6633 43.4188C82.9073 41.9908 78.0353 33.0588 78.0633 32.6948C78.0913 32.3028 83.4673 30.7628 83.7753 30.9308C83.9153 31.0148 85.8753 35.1028 86.8553 37.5948H87.0233C88.3113 35.1308 90.2153 30.9308 90.4113 30.9308C90.6913 30.9308 95.9833 32.3028 96.0113 32.6948ZM123.818 50.5028C123.678 51.0908 118.47 51.1748 118.078 50.9508C117.49 50.2228 114.83 45.5468 112.226 41.5148C112.226 45.1548 112.422 48.9908 112.338 50.6428C111.162 50.8948 106.318 50.9228 106.29 50.6428C106.122 49.4948 106.038 33.0308 106.29 31.5188C106.374 30.9308 111.918 30.9308 112.03 31.1268C112.422 31.7428 115.838 37.1468 118.022 41.4028C118.05 37.2868 117.882 32.6388 118.022 31.4348C119.198 31.1828 123.818 31.2668 124.042 31.4348C124.266 31.6028 124.07 49.4388 123.818 50.5028ZM136.085 30.8748C142.105 30.8748 146.137 34.8788 146.137 41.4308C146.137 46.4148 142.945 51.3708 136.169 51.3708C130.093 51.3708 126.145 47.3668 126.145 40.8148C126.145 35.7748 129.505 30.8748 136.085 30.8748ZM139.529 41.0108C139.529 37.7068 138.017 36.4748 136.141 36.4748C133.929 36.4748 132.557 38.2108 132.557 41.1508C132.557 43.8108 133.985 45.6868 136.029 45.6868C138.325 45.6868 139.529 43.9788 139.529 41.0108ZM159.833 40.4788H159.665C158.657 44.6508 157.201 50.0548 156.753 50.8388C156.501 51.2308 150.873 51.0628 150.313 50.9228C150.033 50.7828 146.869 32.6668 146.953 31.7988C147.373 31.2388 152.749 30.7628 152.805 30.9868C152.973 31.7428 153.953 38.5748 154.289 42.2708H154.401C155.185 38.6868 156.725 32.8348 157.369 31.2388C157.929 31.0988 162.241 31.0988 162.465 31.3228C162.689 31.6308 164.481 39.2188 165.097 42.3828C165.125 42.3828 165.181 42.4108 165.209 42.4108C165.489 39.3588 166.609 32.6668 166.945 31.1268C168.149 31.0428 172.825 31.6028 172.825 31.8828C172.853 33.0308 169.465 49.3268 169.045 50.8108C168.877 51.3708 163.557 51.2028 162.829 51.0628C162.297 49.8308 160.813 44.6508 159.833 40.4788ZM180.782 47.5628C180.782 49.5508 180.222 51.0068 177.506 51.0068C175.49 51.0068 174.09 49.6628 174.09 47.3388C174.09 45.7148 175.49 44.4268 177.506 44.4268C179.466 44.4268 180.782 45.5188 180.782 47.5628ZM173.838 31.3508C174.538 31.0428 179.942 30.7628 180.726 31.0428C180.642 37.7348 178.71 42.2428 178.514 42.5508C178.318 42.8588 176.414 42.6628 176.302 42.5508C176.19 42.4388 173.838 36.7268 173.838 31.3508Z" fill="#FFF6DC"/>
</svg>
