<svg width="95" height="84" viewBox="0 0 95 84" fill="none" xmlns="http://www.w3.org/2000/svg">
<path d="M3.96383 0.576026C4.82118 0.470576 5.69229 0.562271 6.54047 0.68606C13.4956 1.70846 19.9463 5.30293 26.4659 7.69618C31.4541 6.4537 36.1948 3.64782 41.5085 4.07421C43.3654 4.2255 45.7953 5.28 47.4596 5.28C49.1238 5.28 51.5446 4.22092 53.4106 4.07421C58.7243 3.66158 63.4513 6.46746 68.4395 7.68242C74.3126 5.50007 79.9289 2.49705 86.0909 1.14912C87.6176 0.814434 90.9553 0.00292909 92.239 1.04826C92.9818 1.65345 93.752 3.54696 93.9721 4.47767C95.5034 10.9193 89.9329 20.7123 87.3929 26.6221C87.2416 26.9706 86.8565 27.7454 86.8565 28.0709C86.8565 28.3964 88.1403 30.9089 88.3741 31.5049C89.7266 34.9343 90.7123 38.5425 91.0653 42.2241C98.4285 48.4181 92.537 61.2371 87.3608 67.0277C75.8714 79.888 59.8385 84.0601 42.9527 83.4045C34.7873 83.0882 22.821 79.1269 16.2052 74.3267C12.895 71.9243 8.64947 68.339 6.21037 65.0884C2.1666 59.6921 -2.37691 48.9683 2.89099 43.1273C3.09272 42.9026 3.8813 42.2929 3.93632 42.192C4.13805 41.8115 4.32602 39.3678 4.46357 38.6571C5.16962 35.0306 6.62758 31.2711 8.23225 27.9655C6.66884 24.4352 4.97706 20.992 3.57871 17.3884C1.81815 12.8495 -0.694301 6.89843 1.88234 2.22654C2.38667 1.30959 2.86807 0.708984 3.96383 0.571441V0.576026Z" fill="black"/>
<path d="M92.2433 44.6082C92.9218 45.1675 93.5499 47.4461 93.6737 48.3448C93.7288 51.3157 93.1282 54.282 92.2433 57.1338C91.9499 57.8948 91.5923 58.6055 91.253 59.3299C90.2673 61.2142 89.1623 63.071 87.9565 64.8224C87.8465 64.9691 87.741 65.1204 87.6264 65.2626C79.03 71.4749 68.9068 76.5365 58.2243 78.3246C41.0039 81.2038 21.6516 77.9486 9.07552 65.0333C6.55848 62.4429 4.15148 59.4353 2.44594 56.2535C2.08833 55.2219 1.78115 54.3783 1.56567 53.2871C1.37311 51.0039 1.29058 48.6198 2.12501 46.3916C3.38124 43.0356 5.54525 42.6138 8.86921 42.5404C13.752 42.435 18.6164 43.4024 23.3525 44.521C27.1028 45.4747 30.7202 45.3555 34.333 43.8884C35.0207 43.5903 35.6764 43.4986 36.2999 43.6087C35.5022 45.4243 36.1945 46.8455 37.0701 48.4456C39.4817 51.8796 42.6773 54.2041 46.9687 54.3462C51.2692 54.4883 54.6573 52.3885 57.4036 49.2113C58.6277 47.4232 59.751 45.6948 58.614 43.4986C58.8982 43.3061 59.2513 43.3107 59.6685 43.5216C62.6944 45.0116 65.5737 45.9194 69.026 45.2409C73.4182 44.3789 77.8058 43.5307 82.1843 42.6917C85.5312 42.1691 89.7859 41.8252 92.2479 44.5944L92.2433 44.6082Z" fill="#FEE2A6"/>
<path d="M87.6268 65.2671C76.5133 79.1544 57.9679 84.1472 40.642 82.6297C34.0812 82.0566 22.39 77.967 17.0304 74.1478C10.3596 69.398 5.17423 64.1255 2.44629 56.2581C4.86246 59.8296 7.47578 63.3049 10.6301 66.262C24.1093 78.8747 44.7637 81.3414 62.2363 77.3022C69.2556 75.6792 77.444 71.6721 83.5463 67.8392C84.7796 67.0644 85.99 66.0878 87.2187 65.3497C87.3609 65.2626 87.4388 65.1067 87.6222 65.2671H87.6268Z" fill="#B97E68"/>
<path d="M91.5834 1.53422C91.0608 1.8414 90.2997 1.78638 89.6762 1.88266C86.962 2.30446 84.0323 3.15264 81.5382 4.29884C77.5173 6.1465 72.5016 10.0619 68.0177 9.43378C63.0295 8.73689 58.9628 5.59174 53.4931 5.92643C51.0907 6.07314 48.647 7.27435 46.3547 7.13681C44.672 7.03594 42.9894 6.46743 41.2976 6.37115C38.5972 6.21527 34.5764 6.96717 31.9401 7.67323C28.8546 8.49849 27.5021 9.93811 24.2102 8.61769C20.0335 6.93966 16.0264 4.84442 11.6754 3.56527C8.86955 2.74001 5.80692 2.13024 2.88184 2.29987C2.91393 2.25403 2.90476 2.11648 2.98729 2.02479C3.90883 0.988629 5.64187 1.36917 6.85683 1.56631C12.9454 2.55204 18.4517 5.34416 24.0956 7.62738C24.6091 7.83369 26.1496 8.53058 26.5759 8.56267C26.9702 8.59018 28.5015 8.06293 28.9829 7.90705C33.1964 6.54996 37.3456 4.39512 41.9349 4.95446C43.5717 5.15619 46.2813 6.17401 47.6613 6.15108C48.8717 6.12816 51.0586 5.3029 52.4249 5.08283C58.2567 4.13378 63.1028 7.15056 68.5495 8.57184C75.2387 6.2061 81.9738 2.28612 89.1168 1.43794C89.8458 1.35083 90.8911 1.24079 91.5743 1.53422H91.5834Z" fill="#FEDB56"/>
<path d="M89.1673 9.11286C89.6258 9.77765 89.3461 11.2906 89.204 12.0609C88.365 16.5585 86.2331 20.9141 85.2107 25.3796C84.3258 24.316 83.5556 23.1239 82.6799 22.0327C81.199 20.1805 78.792 18.0257 77.6274 16.1505C77.6504 16.0634 77.6779 15.9992 77.71 15.9946C77.7742 15.99 78.8883 16.0771 79.012 16.1C83.7206 17.8835 88.1082 14.6467 88.4842 9.75472L88.7318 9.44754C88.7639 9.23664 88.9106 9.12661 89.1719 9.11744L89.1673 9.11286Z" fill="#B97E68"/>
<path d="M5.96761 9.22289L6.2106 9.51632C6.46277 15.0639 11.5152 18.0348 16.5401 15.8387L17.5075 15.7103C17.7367 15.8341 17.402 16.1642 17.2828 16.3109C15.6782 18.3741 13.5692 20.2218 12.0149 22.3583L9.81423 25.375C8.77349 21.2671 6.98543 17.2829 6.04097 13.1612C5.78422 12.0334 5.24322 10.0802 5.96761 9.11286C6.06389 9.14495 6.06389 9.18163 5.96761 9.22289Z" fill="#B97E68"/>
<path d="M17.1773 15.6003C17.2919 15.6599 17.4432 15.6737 17.5074 15.7103C14.7886 16.774 12.4733 17.3746 9.7408 15.9488C7.18249 14.6146 6.1555 11.9921 5.96753 9.22747C6.43976 9.12202 6.9395 9.2504 7.46675 9.61718C9.27774 10.7496 10.9879 12.0288 12.5925 13.4592C13.9267 14.5091 15.5268 15.3206 17.1773 15.6003Z" fill="#FEE2A6"/>
<path d="M93.3443 5.38085C93.977 9.96104 91.2444 16.0817 89.438 20.3226C88.4569 22.6288 87.297 24.8386 86.3066 27.1402C86.2241 27.2044 85.6785 26.3883 85.7519 26.2095C86.7055 22.427 88.246 18.8096 89.273 15.0547C89.2363 15.3986 89.3509 15.284 89.4885 15.1052C91.5837 12.4735 92.6336 8.6177 93.3397 5.38085H93.3443Z" fill="#B75202"/>
<path d="M6.07742 16.0359C7.04481 19.3461 8.35605 22.56 9.24091 25.9023C9.33261 26.2691 9.07128 26.723 8.85579 26.9981C8.80078 27.0668 8.76868 27.3052 8.60363 27.1356C8.56695 27.0989 8.38356 26.3837 8.29187 26.182C6.6872 22.7434 5.13296 19.5341 3.7942 15.9533C2.35459 12.093 0.635296 7.94375 2.12076 3.84037C1.95113 5.58259 1.79524 7.23769 2.2308 8.9524C2.79472 11.1806 4.32145 14.0736 5.7519 15.8708C5.79317 15.9213 6.02699 16.2605 6.07742 16.0405V16.0359Z" fill="#B75102"/>
<path d="M88.7275 9.44296C88.3928 14.1286 84.9955 17.5443 80.1494 16.6456C79.2966 16.4898 78.5172 16.0221 77.6277 16.1459C77.5819 16.068 77.3297 16.0496 77.4077 15.8158C77.5315 15.8158 77.6323 15.7562 77.7378 15.7058C78.3109 15.935 78.7831 15.7883 79.3241 15.5315C80.4565 14.9997 81.7219 14.1744 82.7122 13.4088C84.4224 11.772 86.293 10.4195 88.3194 9.35585L88.7275 9.43838V9.44296Z" fill="#FEE2A6"/>
<path d="M92.2435 44.6082C88.4565 41.4905 83.7617 42.6688 79.2503 43.4299C74.7388 44.191 67.7425 46.5521 63.364 45.2959C61.7456 44.8328 60.306 43.7462 58.6096 43.5078C58.5179 43.3336 58.2383 43.219 58.2795 42.9577C58.6142 42.6642 63.2081 44.4706 63.9921 44.6632C67.5637 45.5343 73.4414 43.572 77.1779 42.9026C80.3231 42.3387 83.8213 41.8894 87.0215 42.0774C89.1121 42.2012 91.2119 42.5725 92.2389 44.6082H92.2435Z" fill="#FEF5DF"/>
<path d="M1.57057 53.2917C0.855341 49.6422 1.29548 43.6224 5.63726 42.4671C9.09876 41.5455 14.4309 42.2562 17.9703 42.8889C21.8674 43.5812 27.6625 45.5755 31.4037 44.6036C33.1321 44.1543 34.7918 43.2694 36.5753 42.9622C36.7541 43.1685 36.369 43.4757 36.3002 43.6224C34.2967 44.0305 32.3802 44.842 30.3675 45.2179C26.5071 45.9377 21.6244 44.2047 17.7456 43.5491C14.5913 43.0127 7.95715 42.2149 5.05958 43.3244C2.00153 44.4935 1.43761 49.3534 1.56598 52.1455C1.58432 52.5123 1.84107 52.98 1.56598 53.2963L1.57057 53.2917Z" fill="#FDF4DF"/>
<path d="M57.4038 49.225C52.3376 56.6294 41.4029 56.3498 37.0703 48.4548C38.9317 50.5867 41.7193 52.0355 44.4335 52.7966C46.7258 53.4384 47.9637 53.5072 50.2836 52.9295C52.9015 52.2785 55.3911 51.0085 57.4038 49.225Z" fill="#B97F69"/>
<path d="M77.7373 17.5763C81.5655 21.5743 85.3342 26.0261 87.4616 31.2023C88.8324 34.5354 89.8731 38.2766 90.2674 41.8573C90.0886 41.9307 90.0015 41.761 89.9373 41.7473C90.0107 41.4217 89.7769 41.11 89.7173 40.867C89.268 40.2343 88.9929 39.3173 89.1671 38.5608C88.6582 37.8227 88.4381 37.057 88.5069 36.2547C87.8421 34.8334 87.2369 33.3755 86.6913 31.8808C86.4254 31.5416 86.3337 31.239 86.4208 30.9776C85.6597 29.6985 84.9491 28.3826 84.2889 27.0301L84.2201 26.4708L83.8029 26.2003C83.239 25.2054 82.5879 24.2747 81.8498 23.4128L81.9094 23.1698C80.5936 21.3359 79.1356 19.5936 77.7923 17.7781C77.7373 17.7047 77.7556 17.5947 77.7327 17.5626L77.7373 17.5763Z" fill="#FAD355"/>
<path d="M88.3968 8.89736C88.8782 8.71855 89.2037 9.1862 88.7269 9.44753C86.3336 10.2636 84.8436 12.0838 82.8905 13.5555C82.0377 14.2019 79.5207 15.9212 78.5487 16.0313C78.3286 16.0588 77.6822 16.0955 77.7372 15.7103C78.7825 15.2198 79.5619 14.8117 80.5201 14.1515C82.6842 12.6615 85.9118 9.30082 88.3968 8.89736Z" fill="#FDF4DF"/>
<path d="M17.1772 15.6003C17.0029 15.7791 16.8241 15.7012 16.627 15.6645C12.3402 14.8851 10.0478 10.5158 5.9674 9.22748V9.11745C5.98574 9.09452 5.9078 8.97532 6.04534 8.89738C6.64595 8.54894 7.86091 9.15871 8.42025 9.47047C11.4966 11.1623 13.7982 13.8719 17.1772 15.6049V15.6003Z" fill="#FDF4DF"/>
<path d="M13.8809 22.0832C13.8671 22.1932 13.8533 22.2987 13.8213 22.3995C13.7892 22.5004 13.7617 22.5921 13.7066 22.67C12.7851 24.0042 11.8177 25.3246 10.8045 26.5854L10.832 26.8926C10.4102 27.6491 9.9242 28.3506 9.37861 29.0016L9.39236 29.4326C8.84678 30.4275 8.35162 31.4453 7.89773 32.486L7.40257 33.0683L7.48051 33.4259C7.29254 33.9302 7.56292 35.237 7.16404 35.5534C7.36119 35.9156 7.19438 35.8034 6.77717 36.2527C7.00182 36.4452 6.47641 37.2118 6.19216 37.1751C6.09587 37.2622 5.9492 36.3785 5.97212 36.1447C6.53147 34.2191 7.11373 32.3026 7.92982 30.4641C10.3643 24.9899 14.6373 20.5198 18.6123 16.1413C18.6582 16.3981 18.5206 16.476 18.3969 16.6365C16.9893 18.4795 15.3205 20.1943 13.8854 22.074L13.8809 22.0832Z" fill="#FAD254"/>
<path d="M38.7349 42.8384C38.4827 42.412 38.7991 42.2195 39.1521 42.0223C40.8851 41.0595 43.4159 40.8899 45.3324 41.2383C45.6441 41.2934 47.3543 41.6464 46.5657 42.1828C46.1576 42.4625 44.5667 41.9123 43.9386 41.8665C42.985 41.7977 41.8388 41.8894 40.9172 42.137C40.4771 42.2562 39.01 43.0127 38.7349 42.8384Z" fill="#FDFDFD"/>
<path d="M92.2434 57.1383C92.0325 57.0421 92.1976 56.7853 92.2434 56.6432C92.6194 55.3961 92.9541 54.1949 93.1054 52.8928L93.6739 48.3493C94.0957 51.3982 93.33 54.3187 92.2434 57.1383Z" fill="#FAF0DA"/>
<path d="M49.9033 41.1192C50.3342 41.055 51.9114 40.9404 51.673 41.6785C51.5125 42.1782 50.6873 41.8619 50.4122 41.8711C50.105 41.8802 49.1835 42.1782 49.0597 41.7931C48.8992 41.3026 49.5502 41.1696 49.9033 41.1192Z" fill="#F8F8F8"/>
<path d="M91.2535 59.3345C90.2448 61.5031 89.4058 62.9289 87.957 64.827L91.2535 59.3345Z" fill="#F2E7D0"/>
<path d="M6.07747 36.3693C6.23794 37.1442 5.79321 38.1803 5.41726 38.8955C5.30723 39.0514 5.14676 39.5649 5.08716 39.7758C5.14676 38.515 5.62358 37.3367 5.96743 36.1493L6.07747 36.3693Z" fill="#FAD254"/>
<path d="M89.167 9.11287C89.2449 9.36962 88.9561 9.36503 88.7268 9.44297C88.7543 9.05327 88.8323 8.8011 88.3967 8.8928C88.8002 8.82861 88.8094 8.59479 89.167 9.11287Z" fill="#D3C1AE"/>
<path d="M22.4545 55.1577C22.4178 55.254 22.2527 55.5658 22.1656 55.5887C21.3816 55.8317 21.7072 54.4563 21.9226 54.0207C22.2161 53.4339 23.6282 52.2877 24.1096 53.0075C24.591 53.7273 22.9038 53.6585 23.1651 54.1674C23.4264 54.6763 24.756 55.8271 25.2604 56.2535C27.649 58.2616 30.3999 59.6371 33.3066 60.7328C34.9296 61.3472 36.6581 61.9799 38.3911 62.1908C38.1069 62.5896 37.167 62.3467 36.7039 62.2825C33.4808 61.8423 29.3316 59.9167 26.6312 58.1241C25.1411 57.3997 23.8299 56.2489 22.6562 55.0752L22.4545 55.1531V55.1577Z" fill="#010100"/>
<path d="M32.1233 65.8173C32.3205 66.0007 32.0821 66.0053 31.9583 66.0328C31.1559 66.2254 29.4 66.2162 28.5472 66.1474C26.0164 65.9457 24.3109 63.6487 23.5498 61.4205L27.2864 63.7863C28.5747 64.419 29.8355 65.1067 31.188 65.6018C31.3852 65.6752 32.0912 65.7852 32.1279 65.8173H32.1233Z" fill="#B97F69"/>
<path d="M26.6264 58.1241C26.5577 58.3533 26.3009 58.1241 26.1955 58.0599C25.0493 57.3676 23.7655 56.446 22.7661 55.552C22.6331 55.4328 22.4268 55.4145 22.4497 55.1531C22.4864 55.0477 22.3443 54.5984 22.6148 54.713C23.8343 56.0197 25.1456 57.1292 26.6264 58.1195V58.1241Z" fill="#FAF1DB"/>
<path d="M34.6494 34.9389C34.8466 34.7371 35.14 34.728 35.5205 34.8976C35.9928 34.9985 37.084 35.5349 37.0656 36.0346C37.6295 36.5573 37.5424 36.947 37.304 37.5935C37.2032 37.8685 36.9281 38.515 36.6255 38.4508C34.4019 40.9403 29.9776 40.977 27.2084 39.4595C26.5023 39.0698 25.3744 38.1895 24.8655 37.5705H24.5904C24.2741 37.0662 24.0724 36.4931 23.9853 35.8604C23.6368 35.7 23.5635 35.5028 23.7652 35.2644C23.4855 35.0856 23.6781 34.7922 23.9853 34.9343C24.3291 34.7188 24.7876 34.6638 25.3515 34.7647L26.5665 34.7142C28.5288 34.5767 30.6148 34.6179 32.6092 34.7142C33.3153 34.6775 33.9938 34.7509 34.6403 34.9343L34.6494 34.9389Z" fill="black"/>
<path d="M57.7339 36.4794C57.3442 36.2501 57.7797 35.7504 58.0319 35.5211C59.0405 34.5859 61.7364 34.5354 62.9651 34.6638C63.7537 34.4758 64.5606 34.4758 65.3858 34.6638C67.2702 34.5629 69.1499 34.6409 70.9563 34.8564C71.7587 35.0535 71.3277 36.2318 70.8188 35.7091C70.8692 37.3505 70.099 38.1436 68.9024 39.1385L68.6227 39.1156C65.8443 40.8716 61.9106 41.0091 59.1689 39.1156C58.8113 39.1385 58.1373 38.4737 57.9356 38.1528C57.7339 37.8319 57.3304 36.6307 57.743 36.4748L57.7339 36.4794Z" fill="black"/>
<path d="M89.7174 40.8716C89.5294 40.0968 89.3782 39.3357 89.1673 38.5654C88.9564 37.7998 88.7455 37.0158 88.507 36.2593C88.0807 34.9114 87.3187 33.011 86.421 30.9868C85.6272 29.1971 85.0501 27.8921 84.2249 26.48C83.5148 25.2675 82.787 24.1752 81.7858 22.7526C80.3094 20.6549 79.1725 19.2269 77.742 17.5764C77.7191 17.5488 77.7099 17.4067 77.6366 17.3013C77.5724 17.205 76.7104 16.2284 76.6417 16.2009C76.4858 16.1367 75.9173 16.3568 75.7797 16.1322C75.7339 16.0588 75.7339 15.5774 75.7797 15.504C75.8302 15.4215 77.2973 14.9814 77.5953 14.8484C80.8826 13.3675 83.2391 10.392 86.3109 8.72775C91.6981 5.81183 90.0521 12.2305 89.2819 15.0501C89.2223 15.8204 89.6395 15.2886 89.9375 14.8897C91.8585 12.3405 93.0506 8.52602 93.3486 5.38086C93.2202 4.44098 92.5233 1.9377 91.588 1.53424C85.8937 1.67178 80.5846 4.33553 75.7247 7.15975C71.9148 9.39712 68.0406 9.9473 63.9097 8.13631L60.0402 6.74712C56.2119 5.25249 52.4249 5.5184 48.5966 6.71503C46.4922 7.10015 44.7775 6.7838 42.7052 6.32074C38.0425 5.75681 33.1047 6.91218 28.7904 8.53518C27.3462 9.08994 25.8882 9.06243 24.4394 8.47558L15.7788 4.77567C12.033 3.30396 7.44368 1.87351 3.39991 2.06149C3.3128 2.06149 3.23027 2.10275 3.14316 2.14401C3.05147 2.18527 2.96894 2.24488 2.891 2.30448C2.45086 2.91425 2.37751 3.13432 2.12076 3.84496C1.19005 7.2056 2.09325 10.1215 3.68417 13.0879C3.97759 13.6335 5.49057 16.2559 5.93071 16.2972C6.14619 16.3201 6.15536 16.2605 6.07283 16.0405C5.56392 14.3028 4.68823 11.4832 4.86704 9.72264C5.22007 6.23363 9.00709 8.93406 10.5063 10.0161C12.9087 11.7491 14.7747 13.6839 17.5394 14.9585C17.8007 15.0777 19.1945 15.5361 19.2449 15.6187C19.3228 15.7516 19.2357 16.0817 19.2632 16.2605L18.603 16.1505C17.2817 17.7553 15.621 19.6892 13.8761 22.0832C12.621 23.8053 11.9252 24.7805 10.7997 26.59C10.2206 27.5211 9.80025 28.2451 9.36928 29.0062C8.56695 30.4412 8.02627 31.4255 7.38866 33.0729C6.68775 34.8839 5.91407 36.7437 5.40804 38.8956C5.2109 39.0423 5.10086 39.3311 5.07794 39.7758C4.88996 40.4498 4.81202 41.1696 4.74783 41.8619C7.42076 41.1008 10.6026 41.1834 13.3718 41.4218C17.2918 41.761 21.0971 42.8889 24.9483 43.5858C26.9656 43.948 28.7629 44.3652 30.7939 43.8975C32.1143 43.5949 33.3431 42.9531 34.6406 42.5771C35.3787 42.3662 36.7816 42.2241 37.3456 41.9857C37.584 41.8848 37.9416 41.3255 38.2167 41.0962C40.3394 39.3128 43.0674 38.7993 45.7403 39.5007C46.1071 39.597 47.2074 40.083 47.4275 40.0784C47.6888 40.0693 48.6424 39.6062 49.0413 39.5007C51.4483 38.868 54.1533 39.244 56.1752 40.7203C56.5924 41.0229 57.3627 41.894 57.7203 42.0315C58.3347 42.2699 59.4029 42.3616 60.1411 42.5771C61.3469 42.9302 62.5389 43.4987 63.7447 43.8104C65.8354 44.3468 67.2154 44.0534 69.2831 43.6958C75.8577 42.5634 83.2208 40.1289 89.9237 41.7519C90.208 41.6372 90.0384 40.7936 89.7037 40.8716H89.7174ZM57.1976 25.3292C59.4671 25.0266 63.2358 25.3521 63.8501 28.0342L64.1115 28.1259L63.9189 28.4102C64.1619 33.3526 56.5695 33.3617 54.7264 29.7673L54.4422 29.6664L54.5614 29.3684C54.0296 28.103 54.5522 26.9889 55.5288 26.1315L55.5425 25.8198C55.8451 26.0628 56.8905 25.5126 56.973 25.1596L57.2068 25.3292H57.1976ZM39.3491 26.1407C40.4174 26.8559 40.8483 28.0159 40.454 29.2492L40.587 29.5564L40.2982 29.6985C39.0007 32.4585 34.9752 32.9674 32.5407 31.482L32.2335 31.5324L32.2565 31.2298C31.2387 30.2257 30.8948 28.9007 31.2845 27.5207L31.1332 27.2456L31.3945 27.1723C31.8622 26.2232 32.9396 25.806 33.8932 25.5172L33.9895 25.265C34.2004 25.4988 34.4297 25.4943 34.4297 25.155C35.4291 24.8799 36.4974 24.7836 37.506 25.045C37.5886 25.2879 37.8453 25.453 38.2809 25.5447C38.6797 25.8289 39.0053 25.9161 39.262 25.8106L39.3445 26.1315L39.3491 26.1407ZM69.7003 34.7234C69.7003 34.7234 69.6682 34.7234 69.6545 34.7234C69.6453 34.7234 69.6315 34.7188 69.6224 34.7142C69.6499 34.7142 69.6728 34.7188 69.7003 34.7234ZM24.1919 35.7825C24.1139 35.5762 23.7425 35.5808 23.7701 35.269C23.8755 35.1131 23.7746 35.1865 23.9901 34.9389L24.2285 34.7555C26.7272 34.6867 29.3085 34.6638 31.853 34.673C32.7654 34.6776 33.8061 34.6821 34.6497 34.9389C35.8509 35.1315 36.4836 35.269 37.0659 36.0392C37.584 37.0754 36.2681 38.515 36.2681 38.515C33.1138 41.3622 27.6759 41.0939 25.1271 37.5476C24.6719 36.9141 24.255 35.9537 24.1919 35.7825ZM58.1788 38.1482C57.7901 37.597 57.6882 36.8278 57.7341 36.4794C57.8808 35.4065 59.2516 35.1131 60.1273 34.971C62.8415 34.5217 65.9937 34.6701 68.7308 34.8122C69.2358 34.8385 71.7083 34.7644 71.1414 35.6181C71.0773 35.7235 70.8694 35.677 70.8098 35.7091C70.8098 35.7091 70.7135 36.351 70.6494 36.594C70.3697 37.731 68.2011 39.1019 68.2011 39.1019C65.1829 40.8019 59.6487 40.2331 58.1788 38.1482Z" fill="url(#paint0_linear_48_84)"/>
<path d="M64.107 28.1259C64.7717 33.6827 56.0928 33.7102 54.4331 29.6664C53.7362 27.9609 54.268 26.9889 55.5334 25.8198C55.9782 25.6318 56.5375 25.2742 56.9639 25.1596C58.7015 24.6919 62.1447 25.1962 63.3963 26.5854C63.786 27.021 63.9373 27.6032 64.107 28.1259Z" fill="#010000"/>
<path d="M37.5103 25.0495C37.9963 25.1458 38.8445 25.5401 39.2709 25.8198C40.6784 26.7413 41.1415 27.9242 40.5913 29.5564C39.5597 32.6282 34.6678 33.3434 32.2379 31.5324C31.6693 30.9089 31.1604 30.2899 30.9908 29.428C30.8487 28.699 30.9266 27.9242 31.1375 27.2456C31.4814 26.1499 32.9485 25.5355 33.9938 25.2696C34.1314 25.2329 34.301 25.1871 34.434 25.1596C35.4289 24.8845 36.5017 24.7836 37.5103 25.0495Z" fill="#010000"/>
<path d="M37.5105 25.0495C36.6485 24.8799 35.3006 24.9808 34.4341 25.1596C35.3694 24.8019 36.5568 24.6873 37.5105 25.0495Z" fill="#F78701"/>
<path d="M34.6496 34.9389C34.1453 34.8563 33.0679 34.7188 32.6186 34.7188H26.5759C26.5346 34.7188 26.3925 34.8288 26.2503 34.8334C25.5122 34.8609 24.6961 34.7188 23.9946 34.9389C24.0313 34.8976 24.0038 34.6592 24.1505 34.6363C24.3339 34.6088 25.0079 34.7555 25.3701 34.7234C27.91 34.5079 30.7205 34.5125 33.2788 34.7234C33.7785 34.7646 34.1957 34.5446 34.6542 34.9389H34.6496Z" fill="#F07801"/>
<path d="M26.2183 36.1722C26.6034 35.8375 27.3094 36.406 26.8051 36.8141C26.3329 37.1946 25.8377 36.5069 26.2183 36.1722Z" fill="#F9F9F9"/>
<path d="M59.7926 36.273C60.3566 36.1951 60.5033 37.0937 59.9623 37.2313C59.3525 37.3871 59.0774 36.3693 59.7926 36.273Z" fill="#F8F8F8"/>
<path d="M62.8966 27.2456C63.135 27.8187 62.429 28.9237 61.9705 29.3271C60.5263 30.5879 57.4178 30.377 55.8819 29.3455C55.4555 29.0612 54.942 28.6852 54.9833 28.1259C55.1529 26.8605 56.831 25.9711 58.0184 25.8289C59.2059 25.6868 61.9109 26.0719 62.7957 26.9705C62.8829 27.0577 63.346 27.77 63.3735 27.8021L62.8966 27.2456Z" fill="#FEE2A6"/>
<path d="M54.9831 28.1259C56.1018 29.9461 58.9031 30.2853 60.8104 29.7214C62.0849 29.3409 62.4655 28.3964 62.8964 27.2502C63.0477 27.429 63.4145 27.7179 63.4329 27.9563C63.4604 28.3001 63.3733 28.997 63.2816 29.3409C62.2454 33.1187 54.8502 31.9817 54.8869 28.291C54.8869 28.1993 54.9785 28.1488 54.9785 28.1305L54.9831 28.1259Z" fill="#B97E68"/>
<path d="M40.0367 28.0159C40.1742 28.3368 40.0367 28.5615 39.6103 28.6944C38.1477 30.1019 35.6536 30.62 33.7464 29.9048C32.7927 29.5472 31.5869 28.5615 32.0087 27.4657C33.132 25.9069 36.3413 25.453 38.0836 26.0628C38.9868 26.3791 39.8808 27.0439 40.0321 28.0159H40.0367Z" fill="#FEE2A6"/>
<path d="M32.0132 27.4657C32.2883 30.2808 36.112 30.3862 38.1339 29.4647C38.7528 29.1804 39.2205 28.5936 39.7753 28.3552C39.9724 28.268 40.1008 28.4789 40.0366 28.0159C40.0458 28.0801 40.1466 28.1076 40.1283 28.3643C39.8165 32.1743 31.8023 33.2471 31.5685 28.6257C31.5318 27.8692 31.6465 27.9746 32.0132 27.4703V27.4657Z" fill="#B97D67"/>
<defs>
<linearGradient id="paint0_linear_48_84" x1="47.5468" y1="19.2727" x2="47.5468" y2="44.1055" gradientUnits="userSpaceOnUse">
<stop stop-color="#FE9501"/>
<stop offset="1" stop-color="#EF7400"/>
</linearGradient>
</defs>
</svg>
