<svg width="161" height="40" viewBox="0 0 161 40" fill="none" xmlns="http://www.w3.org/2000/svg">
<path d="M1.7 38.85C1.6 38.85 1.55 35.75 7.07805e-08 5.15C3.25 1.65 21.15 0.399998 21.15 10.6C21.15 15.15 19 17.2 14.95 18.45C20 19.5 24.8 22.5 24.8 28.1C24.8 39.9 3.3 38.6 1.7 38.85ZM8.6 23.8L9 32.3C15.5 31.75 16.8 29.5 16.8 26.1C16.8 22 11.1 22.3 8.6 23.8ZM6.95 9.85L7.45 15.3C9.5 15.3 13.75 14.15 13.5 11.1C13.2 7.2 6.9 9.65 6.95 9.85ZM25.2441 37.2L34.0441 3.9L46.4941 3.3C46.4441 3.05 46.8441 4.1 54.2441 36.45L46.5441 37.75L44.3941 27L36.1941 27.45L33.7941 36.95L25.2441 37.2ZM42.9941 20.5L41.1941 9.05C39.0941 9.25 39.0941 9.3 39.0441 9.3L37.3441 20.75L42.9941 20.5ZM55.9762 34.4L53.0762 4.6L61.6762 2.75L63.6762 24.8L63.7762 24.9L72.6762 23.55L74.0762 32.3L55.9762 34.4ZM76.3863 34.4L73.4863 4.6L82.0863 2.75L84.0863 24.8L84.1863 24.9L93.0863 23.55L94.4863 32.3L76.3863 34.4ZM105.173 37.2L96.7227 37.35L96.2227 12.15L90.9227 11.9L90.7227 3.65H110.423L109.623 12.6L104.073 12.3L105.173 37.2ZM114.602 38.4L113.352 29.5L128.652 12.8L112.852 13.8L112.402 5.35L136.802 4.4L136.902 4.45L136.952 16.8C135.352 18.9 127.452 27.8 125.802 29.3V29.35C137.402 27.5 137.452 27.45 137.502 27.45L138.652 35.65C137.902 35.9 130.802 36.25 114.602 38.4ZM160.574 37.6L140.724 37.7L140.674 4.05L159.474 5L158.574 12.7L149.174 11.95L148.924 16.15L155.524 16.85L155.224 23.7L148.774 23.2L148.874 30.3L160.574 30.75C160.574 30.85 160.624 31.5 160.574 37.6Z" fill="#1A1A1A"/>
</svg>
