<svg width="93" height="25" viewBox="0 0 93 25" fill="none" xmlns="http://www.w3.org/2000/svg">
<path d="M9.3269 7.80273L15.668 18.4155H2.98585L9.3269 7.80273Z" fill="white"/>
<path d="M19.8576 13.2305L14.6565 4.65384L25.0587 4.65384L19.8576 13.2305Z" fill="white"/>
<path d="M82.5322 12.1672C82.5322 11.1857 82.7534 10.3217 83.1958 9.57514C83.652 8.82862 84.2672 8.248 85.0414 7.83327C85.8155 7.40471 86.6934 7.19043 87.6749 7.19043C88.6564 7.19043 89.5274 7.40471 90.2877 7.83327C91.0619 8.248 91.6771 8.82862 92.1333 9.57514C92.5895 10.3217 92.8176 11.1857 92.8176 12.1672C92.8176 13.1349 92.5895 13.999 92.1333 14.7593C91.6771 15.5058 91.0619 16.0934 90.2877 16.5219C89.5274 16.9366 88.6564 17.144 87.6749 17.144C86.6934 17.144 85.8155 16.9366 85.0414 16.5219C84.2672 16.0934 83.652 15.5058 83.1958 14.7593C82.7534 13.999 82.5322 13.1349 82.5322 12.1672ZM84.834 12.1672C84.834 12.7617 84.9584 13.287 85.2072 13.7432C85.4561 14.1856 85.7948 14.5381 86.2233 14.8008C86.6519 15.0496 87.1358 15.174 87.6749 15.174C88.2002 15.174 88.6772 15.0496 89.1057 14.8008C89.5481 14.5381 89.8937 14.1856 90.1426 13.7432C90.3914 13.287 90.5158 12.7617 90.5158 12.1672C90.5158 11.5728 90.3914 11.0474 90.1426 10.5912C89.8937 10.135 89.5481 9.78251 89.1057 9.53367C88.6772 9.28483 88.2002 9.16041 87.6749 9.16041C87.1358 9.16041 86.6519 9.28483 86.2233 9.53367C85.7948 9.78251 85.4561 10.135 85.2072 10.5912C84.9584 11.0474 84.834 11.5728 84.834 12.1672Z" fill="white"/>
<path d="M72.2676 7.39844H74.7145L77.2029 13.5572L79.6913 7.39844H82.1589L77.2029 17.8082L72.2676 7.39844Z" fill="white"/>
<path d="M61.6128 12.1672C61.6128 11.1857 61.834 10.3217 62.2764 9.57514C62.7326 8.82862 63.3478 8.248 64.1219 7.83327C64.8961 7.40471 65.7739 7.19043 66.7555 7.19043C67.737 7.19043 68.6079 7.40471 69.3683 7.83327C70.1425 8.248 70.7576 8.82862 71.2138 9.57514C71.6701 10.3217 71.8982 11.1857 71.8982 12.1672C71.8982 13.1349 71.6701 13.999 71.2138 14.7593C70.7576 15.5058 70.1425 16.0934 69.3683 16.5219C68.6079 16.9366 67.737 17.144 66.7555 17.144C65.7739 17.144 64.8961 16.9366 64.1219 16.5219C63.3478 16.0934 62.7326 15.5058 62.2764 14.7593C61.834 13.999 61.6128 13.1349 61.6128 12.1672ZM63.9146 12.1672C63.9146 12.7617 64.039 13.287 64.2878 13.7432C64.5367 14.1856 64.8754 14.5381 65.3039 14.8008C65.7325 15.0496 66.2163 15.174 66.7555 15.174C67.2808 15.174 67.7577 15.0496 68.1863 14.8008C68.6287 14.5381 68.9743 14.1856 69.2231 13.7432C69.472 13.287 69.5964 12.7617 69.5964 12.1672C69.5964 11.5728 69.472 11.0474 69.2231 10.5912C68.9743 10.135 68.6287 9.78251 68.1863 9.53367C67.7577 9.28483 67.2808 9.16041 66.7555 9.16041C66.2163 9.16041 65.7325 9.28483 65.3039 9.53367C64.8754 9.78251 64.5367 10.135 64.2878 10.5912C64.039 11.0474 63.9146 11.5728 63.9146 12.1672Z" fill="white"/>
<path d="M57.1766 11.1304C57.1766 10.4253 57.0315 9.8931 56.7411 9.53367C56.4508 9.17423 56.0015 8.99452 55.3933 8.99452C54.9785 8.99452 54.6122 9.08437 54.2942 9.26409C53.9763 9.42998 53.7274 9.67882 53.5477 10.0106C53.368 10.3286 53.2781 10.7018 53.2781 11.1304V16.9366H51.0386V7.3978H53.2781V8.8701C53.5823 8.30329 53.9694 7.88165 54.4394 7.60516C54.9232 7.32867 55.4969 7.19043 56.1605 7.19043C57.2388 7.19043 58.0614 7.52222 58.6282 8.18579C59.195 8.83553 59.4784 9.73412 59.4784 10.8815V16.9366H57.1766V11.1304Z" fill="white"/>
<path d="M42.678 13.8054C42.9821 14.1372 43.2863 14.4275 43.5904 14.6763C43.9084 14.9114 44.2263 15.0911 44.5443 15.2155C44.8622 15.3261 45.1802 15.3814 45.4982 15.3814C45.8991 15.3814 46.2101 15.2915 46.4313 15.1118C46.6663 14.9321 46.7838 14.6833 46.7838 14.3653C46.7838 14.0888 46.694 13.8538 46.5143 13.6603C46.3345 13.4529 46.0857 13.2801 45.7677 13.1418C45.4498 12.9898 45.0765 12.8377 44.648 12.6856C44.2194 12.5197 43.7909 12.3262 43.3623 12.105C42.9476 11.87 42.602 11.5659 42.3255 11.1926C42.0628 10.8193 41.9315 10.3493 41.9315 9.78251C41.9315 9.20188 42.0766 8.71803 42.3669 8.33094C42.6711 7.94386 43.072 7.66046 43.5697 7.48074C44.0812 7.2872 44.6272 7.19043 45.2079 7.19043C45.7332 7.19043 46.224 7.26646 46.6802 7.41853C47.1502 7.5706 47.5718 7.77105 47.9451 8.01989C48.3183 8.26873 48.6363 8.55213 48.899 8.8701L47.6548 10.1972C47.3368 9.82398 46.9566 9.51984 46.5143 9.28483C46.0719 9.04981 45.6157 8.93231 45.1456 8.93231C44.8277 8.93231 44.565 9.00143 44.3577 9.13967C44.1503 9.27792 44.0466 9.47837 44.0466 9.74103C44.0466 9.96222 44.1365 10.1627 44.3162 10.3424C44.5097 10.5083 44.7586 10.6604 45.0627 10.7986C45.3807 10.9368 45.7332 11.082 46.1203 11.2341C46.6456 11.4414 47.1294 11.6695 47.5718 11.9184C48.0142 12.1672 48.3667 12.4714 48.6294 12.8308C48.9059 13.1902 49.0441 13.6603 49.0441 14.2409C49.0441 15.1395 48.7331 15.8652 48.111 16.4182C47.5027 16.9574 46.6732 17.227 45.6226 17.227C44.9728 17.227 44.3715 17.1302 43.8185 16.9366C43.2794 16.7293 42.8024 16.4666 42.3877 16.1486C41.9868 15.8169 41.6481 15.4713 41.3716 15.1118L42.678 13.8054Z" fill="white"/>
<path d="M29.8359 12.1672C29.8359 11.1857 30.0571 10.3217 30.4995 9.57514C30.9557 8.82862 31.5709 8.248 32.3451 7.83327C33.1192 7.40471 33.9971 7.19043 34.9786 7.19043C35.9602 7.19043 36.8311 7.40471 37.5914 7.83327C38.3656 8.248 38.9808 8.82862 39.437 9.57514C39.8932 10.3217 40.1213 11.1857 40.1213 12.1672C40.1213 13.1349 39.8932 13.999 39.437 14.7593C38.9808 15.5058 38.3656 16.0934 37.5914 16.5219C36.8311 16.9366 35.9602 17.144 34.9786 17.144C33.9971 17.144 33.1192 16.9366 32.3451 16.5219C31.5709 16.0934 30.9557 15.5058 30.4995 14.7593C30.0571 13.999 29.8359 13.1349 29.8359 12.1672ZM32.1377 12.1672C32.1377 12.7617 32.2621 13.287 32.511 13.7432C32.7598 14.1856 33.0985 14.5381 33.5271 14.8008C33.9556 15.0496 34.4395 15.174 34.9786 15.174C35.5039 15.174 35.9809 15.0496 36.4094 14.8008C36.8518 14.5381 37.1974 14.1856 37.4463 13.7432C37.6951 13.287 37.8195 12.7617 37.8195 12.1672C37.8195 11.5728 37.6951 11.0474 37.4463 10.5912C37.1974 10.135 36.8518 9.78251 36.4094 9.53367C35.9809 9.28483 35.5039 9.16041 34.9786 9.16041C34.4395 9.16041 33.9556 9.28483 33.5271 9.53367C33.0985 9.78251 32.7598 10.135 32.511 10.5912C32.2621 11.0474 32.1377 11.5728 32.1377 12.1672Z" fill="white"/>
</svg>
