<svg width="80" height="74" viewBox="0 0 80 74" fill="none" xmlns="http://www.w3.org/2000/svg">
<path d="M79.2075 41.4777C82.4903 19.7569 69.9182 1.52588e-05 47.8594 1.52588e-05C25.8006 1.52588e-05 0.362305 19.3078 0.362305 41.4777C0.362305 63.6477 20.0453 74 42.1041 74C64.1629 74 75.9247 63.1985 79.2075 41.4777Z" fill="#1A1A1A"/>
<path fill-rule="evenodd" clip-rule="evenodd" d="M56.7124 20.3993C57.2794 20.1637 57.9 20.0824 58.5096 20.164C59.1192 20.2455 59.6956 20.4869 60.1786 20.8631C60.6617 21.2392 61.0338 21.7363 61.2563 22.3026C61.4788 22.869 61.5434 23.4839 61.4436 24.0833L56.2397 55.2518C55.7349 58.2583 52.3942 59.9825 49.6018 58.4849C47.2661 57.232 43.7969 55.3017 40.6764 53.2875C39.1161 52.2793 34.3368 49.0507 34.9242 46.7534C35.4289 44.7891 43.4596 37.4076 48.0485 33.019C49.8497 31.2948 49.0282 30.3002 46.9013 31.8862C41.6194 35.8239 33.1391 41.812 30.3352 43.4976C27.8618 44.9839 26.5723 45.2376 25.0304 44.9839C22.2174 44.5217 19.6086 43.8058 17.4794 42.9335C14.6021 41.7553 14.7421 37.8494 17.4771 36.712L56.7124 20.3993Z" fill="#FDF7E8"/>
</svg>
