<svg width="189" height="73" viewBox="0 0 189 73" fill="none" xmlns="http://www.w3.org/2000/svg">
<path d="M133.073 1.87596C157.428 0.85837 171.952 7.22902 178.724 13.7475C185.495 20.2659 191.793 31.8114 184.371 48.5389C176.949 65.2665 152.037 66.8809 133.669 62.2642C116.372 57.9167 104.79 58.3628 86.0048 60.9554C53.7422 65.4083 32.5949 77.898 13.5588 67.3013C-2.88707 58.1464 -6.90226 27.921 22.5664 16.7203C48.738 6.77287 72.9774 11.2471 89.997 8.7899C112.094 5.5995 108.719 2.89356 133.073 1.87596Z" fill="#FDF7E8"/>
<path d="M40.7195 39.7627C40.7028 40.1156 40.7453 42.3479 40.7453 42.3479C41.0986 42.3882 41.428 42.4054 41.71 42.4C43.1668 42.3723 43.6966 41.7981 43.6813 40.9991C43.6635 40.0592 42.8334 39.6754 41.5411 39.7C41.2826 39.705 41.0011 39.7338 40.7195 39.7627ZM40.3705 33.7753C40.3537 34.1282 40.3917 36.1255 40.3917 36.1255C40.5567 36.1459 40.6977 36.1432 40.8621 36.14C42.131 36.1159 42.8039 35.6565 42.7878 34.8105C42.7713 33.9411 41.662 33.7037 40.9101 33.718C40.7221 33.7216 40.511 33.7491 40.3705 33.7753ZM46.1077 37.5681L46.1104 37.7091C47.6435 37.9854 49.1033 39.3445 49.1484 41.7178C49.2088 44.8899 46.6975 46.3246 42.4679 46.4051C40.1652 46.449 35.9555 46.3411 35.8362 46.2493C35.717 46.1576 35.2293 30.4178 35.2962 30.2284C35.3631 30.0391 39.8023 29.8606 40.2723 29.8516C44.0084 29.7805 47.7832 30.5079 47.853 34.1735C47.8892 36.0768 47.176 36.8896 46.1077 37.5681ZM50.5832 29.9374C50.6443 29.4426 55.6537 29.5823 55.7509 29.745C55.9207 30.0239 55.6317 35.8354 55.6805 38.3966C55.7226 40.6054 56.3239 41.3226 57.7102 41.2962C59.3315 41.2653 59.6377 40.0607 59.6064 38.4159C59.5576 35.8546 59.2744 30.8532 59.2254 29.5143C59.5268 29.297 64.7157 28.9867 64.7672 29.2208C64.8693 29.6419 65.0876 36.1725 65.1355 38.6867C65.2151 42.8693 63.7996 46.3046 57.9017 46.4169C53.2962 46.5046 50.4846 44.5131 50.383 39.1791C50.3446 37.1583 50.3959 31.2103 50.5832 29.9374ZM81.1207 30.2963C81.1501 30.6013 76.8078 38.347 76.2166 39.3925C76.307 41.6709 76.394 45.0071 76.2642 45.5972C76.1561 46.0929 70.9808 45.8858 70.9537 45.6983C70.8401 44.6662 70.903 41.7972 70.9296 39.4931C70.2724 38.3068 66.0411 30.889 66.0588 30.583C66.076 30.2536 70.563 28.8754 70.8241 29.0114C70.943 29.0797 72.6531 32.479 73.5153 34.5547L73.6563 34.552C74.6978 32.4636 76.2286 28.9086 76.393 28.9054C76.628 28.901 81.091 29.9678 81.1207 30.2963ZM104.741 44.7965C104.633 45.2922 100.263 45.4459 99.9309 45.2642C99.4258 44.6626 97.1188 40.781 94.8691 37.439C94.9273 40.4937 95.153 43.7097 95.1089 45.0974C94.1261 45.3277 90.0614 45.4286 90.0335 45.194C89.8741 44.2333 89.5406 30.4181 89.7279 29.1452C89.789 28.6504 94.4416 28.5618 94.5387 28.7245C94.8775 29.2352 97.8305 33.7157 99.7313 37.2524C99.6891 33.7978 99.4738 29.8999 99.5721 28.8873C100.555 28.657 104.433 28.6537 104.624 28.7911C104.815 28.9285 104.935 43.8996 104.741 44.7965ZM114.722 28.1287C119.774 28.0326 123.221 31.3283 123.326 36.8267C123.406 41.0093 120.806 45.2194 115.12 45.3276C110.021 45.4247 106.644 42.1276 106.539 36.6292C106.458 32.3996 109.2 28.2339 114.722 28.1287ZM117.774 36.5798C117.721 33.8071 116.433 32.7974 114.858 32.8274C113.002 32.8627 111.878 34.3415 111.925 36.8087C111.968 39.041 113.196 40.5925 114.911 40.5598C116.838 40.5232 117.821 39.0706 117.774 36.5798ZM134.804 35.809L134.663 35.8117C133.884 39.3289 132.748 43.8872 132.385 44.5523C132.18 44.8853 127.454 44.8342 126.982 44.7257C126.744 44.6127 123.8 29.4603 123.856 28.7305C124.2 28.2539 128.704 27.7685 128.754 27.9556C128.907 28.5874 129.839 34.3051 130.18 37.4014L130.274 37.3996C130.875 34.3794 132.074 29.4438 132.589 28.0942C133.056 27.9677 136.675 27.8989 136.866 28.0833C137.059 28.3381 138.684 34.6774 139.252 37.3227C139.275 37.3223 139.323 37.3449 139.346 37.3445C139.533 34.7787 140.366 29.1449 140.623 27.8472C141.632 27.7575 145.565 28.1527 145.569 28.3877C145.611 29.3506 143.028 43.0804 142.7 44.3324C142.568 44.8051 138.1 44.7491 137.487 44.6432C137.021 43.6178 135.693 39.2945 134.804 35.809ZM152.498 41.4192C152.53 43.0875 152.083 44.3183 149.804 44.3617C148.112 44.3939 146.916 43.2884 146.878 41.3381C146.852 39.9753 148.007 38.872 149.699 38.8398C151.343 38.8085 152.465 39.7039 152.498 41.4192ZM146.411 27.925C146.994 27.6554 151.525 27.3341 152.187 27.5565C152.223 33.1738 150.674 36.9878 150.515 37.2494C150.355 37.511 148.754 37.3769 148.658 37.2847C148.562 37.1925 146.497 32.4366 146.411 27.925Z" fill="#E95718"/>
</svg>
