<svg width="76" height="71" viewBox="0 0 76 71" fill="none" xmlns="http://www.w3.org/2000/svg">
<path d="M1.12703 36.2694C-1.52951 56.6722 12.262 69.806 32.7151 69.4166C53.1681 69.0272 75.0379 53.3168 74.6426 32.5513C74.2473 11.7858 53.1421 1.01542 32.689 1.40479C12.236 1.79416 3.78356 15.8667 1.12703 36.2694Z" fill="#FDF7E8"/>
<g clip-path="url(#clip0_1_180)">
<mask id="mask0_1_180" style="mask-type:luminance" maskUnits="userSpaceOnUse" x="19" y="16" width="35" height="41">
<path d="M53.1105 16.019L19.3302 16.6621L20.0916 56.6549L53.8718 56.0118L53.1105 16.019Z" fill="white"/>
</mask>
<g mask="url(#mask0_1_180)">
<path fill-rule="evenodd" clip-rule="evenodd" d="M39.9526 30.54C41.1712 29.9059 42.7191 28.9769 44.2629 27.715C44.6062 28.392 44.6541 28.9875 44.4926 29.4721C44.3784 29.8136 44.1566 30.1131 43.8624 30.3536C43.5437 30.6133 43.1428 30.806 42.6979 30.9143C41.8536 31.1206 40.8614 31.0287 39.9526 30.54ZM40.2851 36.7942L41.9312 37.6998C38.6417 39.6189 37.8033 43.082 36.7933 46.4584C35.6559 43.1229 34.6861 39.6939 31.3261 37.9017L32.9366 36.9341C33.2574 36.8063 33.4593 36.4876 33.4363 36.1442C33.2271 33.0038 34.053 31.5974 35.1863 30.7031C35.5925 30.3827 36.0397 30.2172 36.4839 30.2088C36.9281 30.2003 37.3813 30.3486 37.7994 30.6533C38.9655 31.5043 39.8443 32.8778 39.7552 36.0239C39.7453 36.3679 39.9599 36.6787 40.2851 36.7942ZM36.2203 16.3407C38.1035 16.3553 39.9975 16.6831 41.6487 17.3598C42.7922 17.8291 43.8624 18.4571 44.8356 19.2142C45.2749 19.556 45.6377 19.8874 46.0377 20.2692C47.097 20.2854 48.6218 19.085 49.3192 17.9756C48.1597 22.0345 42.61 26.907 38.7398 28.8049C38.7383 28.8042 38.7372 28.8034 38.7361 28.8027C38.0251 28.2832 37.2318 28.0316 36.4435 28.0466C35.6552 28.0617 34.872 28.3432 34.1814 28.8895C34.1803 28.8902 34.1792 28.8913 34.1777 28.8917C30.2373 27.1425 24.5065 22.4844 23.1935 18.473C23.9326 19.555 25.5017 20.6969 26.5596 20.64C26.9446 20.2436 27.2945 19.8983 27.7206 19.54C28.6639 18.7464 29.7098 18.0782 30.8346 17.5656C32.4592 16.8266 34.339 16.4269 36.2203 16.3407ZM33.0312 30.6718C31.7896 30.0845 30.2072 29.2151 28.6164 28.0128C28.2991 28.7025 28.274 29.2994 28.4533 29.7774C28.5804 30.1144 28.8136 30.4052 29.1167 30.6343C29.4454 30.8817 29.8533 31.059 30.3021 31.1503C31.1536 31.3243 32.1419 31.1947 33.0312 30.6718Z" fill="#343434"/>
<path fill-rule="evenodd" clip-rule="evenodd" d="M45.9507 26.1726C46.797 25.2892 47.539 24.3152 48.1338 23.447L48.4555 24.0228C49.4928 25.995 50.0499 27.9685 50.0924 30.2003L50.1577 33.7422L50.2112 35.5776C50.3693 40.0836 51.4357 44.6249 53.7337 48.7561L49.021 45.1172L45.8378 50.4869L42.3259 47.3181L36.9817 56.3333L31.2981 47.5285L27.9095 50.8286L24.5243 45.5839L19.9534 49.3995C22.0925 45.184 22.985 40.6049 22.9718 36.0966L22.9554 34.2604L22.8858 30.7186C22.8433 28.4864 23.3246 26.4935 24.2865 24.4833L24.5856 23.8957C25.2133 24.7402 25.9915 25.6853 26.8708 26.5362L26.6118 27.0987C26.1089 28.1909 25.9588 29.4045 26.3884 30.548C26.6654 31.2843 27.1571 31.9111 27.7848 32.3847C28.3944 32.8445 29.1113 33.1488 29.8585 33.3014C30.3454 33.4008 30.8399 33.4363 31.3305 33.4118C31.2284 34.0603 31.1908 34.7312 31.201 35.4143L26.8703 38.016L30.285 39.8376C30.5578 39.9834 30.8184 40.1509 31.0634 40.3395C33.8964 42.7771 35.7115 50.1132 36.931 53.6903C38.0134 50.0694 39.5481 42.6695 42.2862 40.1259C42.5238 39.9284 42.7779 39.7508 43.045 39.5946L46.3879 37.6445L41.9613 35.2095C41.945 34.5265 41.8823 33.8574 41.7557 33.2133C42.2468 33.2192 42.7396 33.1649 43.2224 33.047C43.9632 32.866 44.668 32.5347 45.2596 32.052C45.8688 31.5548 46.3364 30.9098 46.5851 30.1636C46.9709 29.0049 46.7747 27.7979 46.2306 26.7252L45.9507 26.1726Z" fill="#343434"/>
</g>
</g>
<defs>
<clipPath id="clip0_1_180">
<rect width="34" height="40" fill="white" transform="translate(19.3302 16.6621) rotate(-1.09063)"/>
</clipPath>
</defs>
</svg>
