<svg width="76" height="71" viewBox="0 0 76 71" fill="none" xmlns="http://www.w3.org/2000/svg">
<path d="M74.2544 38.6773C76.9293 18.3695 64.8581 0.174029 44.2935 0.565525C23.7289 0.957022 0.356355 19.4084 0.749824 40.0767C1.14329 60.7449 19.6768 70.0467 40.2414 69.6552C60.806 69.2637 71.5794 58.9851 74.2544 38.6773Z" fill="#FDF7E8"/>
<path fill-rule="evenodd" clip-rule="evenodd" d="M35.221 20.0038C32.8786 21.2898 30.963 22.3769 30.9643 22.4197C30.9675 22.5298 36.6998 25.3171 36.9011 25.3062C36.9926 25.3014 37.6517 24.9804 38.3657 24.5933L39.6638 23.8893L41.1098 24.6032L42.5557 25.3172L44.8804 24.2116C48.3831 22.5456 48.7467 22.3634 48.6881 22.3057C48.6104 22.229 47.3301 21.5677 43.8572 19.8104C42.1788 18.961 40.5495 18.1281 40.2366 17.9591C39.9234 17.7899 39.6253 17.6549 39.5736 17.6586C39.522 17.6623 37.5633 18.7177 35.221 20.0038ZM24.9469 25.6122L22.5085 26.9403L22.6155 32.5627C22.6744 35.655 22.7548 38.1843 22.7946 38.1836C22.8344 38.1828 24.0358 37.6309 25.4649 36.9568L28.0632 35.7315L27.9504 29.8052L29.2446 30.4834C30.2417 31.0055 31.2396 31.5264 32.2378 32.0464L33.9369 32.9313L34.6787 32.5762C35.1439 32.3532 35.6082 32.1282 36.0715 31.901C36.4294 31.7247 37.3084 31.3057 38.0248 30.9697C38.7411 30.6336 39.4037 30.2965 39.4971 30.2209C39.6212 30.1204 38.0689 29.2949 33.7556 27.1675C30.5044 25.5639 27.741 24.259 27.6149 24.268C27.4887 24.2769 26.2882 24.8818 24.9469 25.6122ZM49.1929 25.5105C47.53 26.3049 46.1688 26.9855 46.1681 27.0228C46.1673 27.0601 47.0918 27.5901 48.2228 28.2004C49.3538 28.8109 50.2798 29.344 50.2806 29.3855C50.2814 29.427 49.3004 29.9289 48.1009 30.5012C46.9011 31.0735 43.8688 32.5227 41.3622 33.7219L32.9631 37.7395C30.8504 38.7503 28.946 39.6612 28.7311 39.7642C24.4157 41.8314 23.2297 42.4048 23.0672 42.5024C22.9038 42.6007 22.877 43.1542 22.9004 45.9295L22.9282 49.2396L25.1522 50.3277L27.3762 51.4158L30.4037 49.9698C32.0689 49.1746 33.4305 48.484 33.4296 48.4349C33.4287 48.3859 33.1144 48.1885 32.7314 47.9953C32.3483 47.8022 31.5566 47.3739 30.9721 47.0429C30.3877 46.712 29.8055 46.4094 29.6781 46.3702C29.5509 46.3311 29.4479 46.2605 29.449 46.2131C29.4502 46.1658 30.7828 45.4971 32.4101 44.7267C35.5709 43.2306 37.9896 42.0779 43.1822 39.593C45.504 38.482 47.8263 37.3721 50.1486 36.2622C52.1898 35.2871 54.5629 34.1487 55.4222 33.7322L56.9846 32.9749L56.9559 29.6271L56.9274 26.2795L54.6715 25.1675C53.4307 24.5559 52.3708 24.058 52.3157 24.061C52.2607 24.0638 50.8556 24.716 49.1929 25.5105ZM56.4713 37.4514C56.1452 37.6195 55.5009 37.9351 55.0393 38.1524C54.5778 38.3699 53.7022 38.788 53.0932 39.0819L51.9866 39.6159L52.0171 42.5548C52.0338 44.1711 51.9998 45.4873 51.9413 45.48C51.8089 45.4627 49.6957 44.4218 47.5706 43.3268C46.0368 42.5366 45.9408 42.5059 45.5875 42.6907C45.3832 42.7976 44.161 43.3776 42.8716 43.9801C41.5822 44.5825 40.4856 45.114 40.4343 45.1611C40.3834 45.2082 43.0277 46.5867 46.3108 48.2248L52.2802 51.203L54.78 49.8396C56.1549 49.09 57.323 48.4077 57.3758 48.3237C57.4947 48.1348 57.2744 37.1158 57.1521 37.133C57.1037 37.1399 56.7974 37.2832 56.4713 37.4514ZM42.7358 50.6513C42.3014 50.8492 41.8672 51.0475 41.4331 51.2459C40.1223 51.847 40.3816 51.8611 38.794 51.1028C37.7366 50.5977 37.282 50.4443 37.0876 50.5267C36.9417 50.5884 35.6875 51.1856 34.3003 51.8539C32.9132 52.5221 31.7297 53.0696 31.6704 53.0707C31.0832 53.0819 32.0706 53.6505 35.8734 55.492L40.3332 57.6514L42.1742 56.6922C43.1866 56.1645 45.229 55.1075 46.7128 54.3437C48.1964 53.5794 49.3916 52.9353 49.3685 52.9125C49.3454 52.8895 48.0781 52.2644 46.5522 51.5235L43.7778 50.1765L42.7358 50.6513Z" fill="#08A2C9"/>
</svg>
