<svg width="76" height="71" viewBox="0 0 76 71" fill="none" xmlns="http://www.w3.org/2000/svg">
<path d="M74.2851 38.9127C76.9601 18.6049 64.8889 0.40938 44.3243 0.800877C23.7597 1.19237 0.387116 19.6438 0.780586 40.312C1.17406 60.9802 19.7075 70.282 40.2721 69.8905C60.8367 69.499 71.6102 59.2204 74.2851 38.9127Z" fill="#FDF7E8"/>
<path fill-rule="evenodd" clip-rule="evenodd" d="M52.9395 19.6614C53.464 19.4316 54.0411 19.3449 54.6109 19.4101C55.1806 19.4753 55.7222 19.6901 56.1792 20.0322C56.6362 20.3743 56.992 20.8311 57.2094 21.3552C57.4269 21.8792 57.4981 22.4513 57.4156 23.0118L53.1175 52.1615C52.7002 54.9733 49.6164 56.64 46.9866 55.2934C44.7868 54.1668 41.5183 52.4288 38.5734 50.6065C37.101 49.6942 32.5881 46.7692 33.0949 44.617C33.5306 42.7768 40.8863 35.7528 45.0865 31.58C46.735 29.9407 45.9516 29.028 43.9969 30.5443C39.1427 34.309 31.343 40.042 28.759 41.6633C26.4795 43.0928 25.2819 43.3522 23.8399 43.143C21.2093 42.762 18.7645 42.1409 16.7639 41.3655C14.0607 40.3182 14.1218 36.6743 16.6514 35.5655L52.9395 19.6614Z" fill="#429CD1"/>
</svg>
