<svg width="869" height="271" viewBox="0 0 869 271" fill="none" xmlns="http://www.w3.org/2000/svg">
<path d="M24.7806 270.676C16.4109 270.08 2.26196 261.041 0.0673218 247.463L18.9944 242.141C21.1984 248.368 26.16 251.8 32.5628 247.298C43.4805 239.397 28.7783 179.429 25.0134 164.321L51.9393 161.417C52.4135 163.673 53.0397 165.755 53.5033 167.848C65.5455 222.109 76.8658 272.824 24.7806 270.676Z" fill="#FDF7E8"/>
<path d="M126.591 265.162C83.9724 270.399 59.8176 225.751 73.2444 188.773C80.3166 169.525 97.1917 157.804 114.726 156.168C144.937 153.539 165.224 179.001 167.93 207.9C170.346 234.858 157.678 263.456 126.591 265.162ZM126.067 182.215C91.0472 163.76 90.6892 240.72 121.268 238.721C146.642 237.062 142.578 192.407 126.067 182.215Z" fill="#FDF7E8"/>
<path d="M178.23 261.785L175.266 154.006L204.685 151.755L206.263 258.319L178.23 261.785Z" fill="#FDF7E8"/>
<path d="M222.748 257.894L212.089 164.829L242.416 156.475L242.741 156.454L278.586 200.011L271.065 162.443L299.066 158.488L312.778 238.286L286.387 246.872C286.387 246.872 286.051 246.731 285.888 246.741C282.412 243.538 252.506 210.864 245.836 203.786L251.704 253.55L222.748 257.894Z" fill="#FDF7E8"/>
<path d="M370.39 248.433L360.833 120.636L402.74 110.85L403.186 110.838L449.84 172.314L441.584 120.551L480.075 116.654L494.52 226.479L457.98 236.794C457.98 236.794 457.528 236.583 457.305 236.589C452.726 232.023 413.604 185.745 404.867 175.71L410.207 244.055L370.39 248.433Z" fill="#FDF7E8"/>
<path d="M577.289 244.411C518.746 249.274 488.131 186.937 508.478 137.11C519.183 111.179 542.884 96.0651 566.942 94.7725C608.383 92.8064 634.744 128.708 636.887 168.36C638.737 205.342 619.879 243.753 577.289 244.411ZM581.042 130.991C534.163 103.876 529.527 209.064 571.437 207.978C606.213 207.077 603.065 145.813 581.042 130.991Z" fill="#FDF7E8"/>
<path d="M667.275 239.179L639.977 115.411L673.306 110.309L686.248 179.35L686.7 179.561L698.565 112.331L734.906 102.913L763.69 180.689L780.718 97.4873L819.139 108.092L790.189 221.941L745.433 225.108L719.925 170.446L708.447 235.435L667.275 239.179Z" fill="#FDF7E8"/>
<path d="M837.611 4.66729C848.247 5.9984 857.301 16.0041 860.025 20.9386C861.835 23.3984 857.126 27.8879 854.938 30.2609C847.457 38.7929 831.746 56.5507 828.752 59.3258C825.009 62.7946 824.027 66.8076 814.63 61.1317C807.112 56.591 807.205 50.6185 808.192 48.1998C811.487 42.7945 817.992 32.2346 824.525 21.5911C832.691 8.28667 835.677 4.42527 837.611 4.66729Z" fill="#FDF7E8"/>
<path d="M862.461 49.3338C865.115 51.3865 865.517 54.5248 865.386 55.8373C861.595 61.1971 852.491 71.2796 846.402 68.7309C838.79 65.5451 842.406 60.8691 843.764 59.7984L843.764 59.7983C845.122 58.7276 851.913 53.3738 854.479 50.0554C857.045 46.737 859.142 46.7678 862.461 49.3338Z" fill="#FDF7E8"/>
<path d="M798.926 45.9396C795.243 45.2958 793.217 42.4113 792.665 41.0496C793.616 33.7978 797.35 19.1311 804.675 18.4795C813.832 17.6649 812.698 24.1517 811.916 25.9126L811.916 25.9127C811.133 27.6737 807.222 36.4782 806.417 41.0817C805.612 45.6852 803.53 46.7444 798.926 45.9396Z" fill="#FDF7E8"/>
</svg>
