<svg width="76" height="71" viewBox="0 0 76 71" fill="none" xmlns="http://www.w3.org/2000/svg">
<path d="M74.2906 35.1132C77.7218 55.4 64.4401 69.0493 43.9871 69.4386C23.534 69.828 1.08211 54.9613 0.686791 34.1958C0.291469 13.4303 20.9714 1.86447 41.4245 1.47509C61.8775 1.08572 70.8595 14.8263 74.2906 35.1132Z" fill="#FDF7E8"/>
<path d="M50.316 18.9634L55.8291 18.8584L44.0462 32.8555L58.5736 51.3168L47.4785 51.528L38.573 40.3317L28.8448 51.8828L23.3287 51.9878L35.9322 37.0159L21.9999 19.5039L33.3767 19.2874L41.4291 29.5228L50.316 18.9634ZM48.9378 48.2002L51.9924 48.142L31.7762 22.444L28.4983 22.5064L48.9378 48.2002Z" fill="#343434"/>
</svg>
