<svg width="896" height="884" viewBox="0 0 896 884" fill="none" xmlns="http://www.w3.org/2000/svg">
<path d="M17.0965 444.456C85.7537 578.381 154.691 480.217 205.977 710.893C214.013 747.047 243.31 800.611 268.474 826.817C336.088 897.234 415.523 893.431 504.348 864.354C698.008 800.955 830.903 850.253 884.921 749.584C913.513 696.311 877.213 640.602 843.701 616.94C762.761 559.792 733.388 544.075 783.484 472.435C970.905 204.415 655.086 -183.28 408.887 98.7813C350.523 165.647 320.871 216.992 230.719 221.918C164.594 225.528 180.255 224.994 123.19 238.484C9.52112 265.359 -24.5418 338.781 17.0965 444.456Z" fill="#F6C100"/>
</svg>
