<svg width="1920" height="1810" viewBox="0 0 1920 1810" fill="none" xmlns="http://www.w3.org/2000/svg">
<path d="M-430.565 273.029C-281.628 255.127 -188.585 262.489 137.58 256.754C624.445 248.197 730.102 87.4545 1077.03 22.7456C1303.51 -19.5004 1583.24 -2.93774 1813.77 77.4114C2176.54 203.861 1945.62 212.409 2692.32 407.765C3291.36 564.518 3137.15 830.152 2689.98 849.621C2232.75 869.524 2398.48 1108.5 2082.46 1108.5C2087.22 1156.68 2164.85 2037.26 1894.27 2013.64C1493.91 1978.7 479.474 2053.92 -85.5321 2013.64C-480.658 1985.48 -457.4 819.116 -722.99 616.003C-904.016 477.548 -813.204 319.02 -430.565 273.029Z" fill="#FFEEC0"/>
</svg>
