<svg width="56" height="52" viewBox="0 0 56 52" fill="none" xmlns="http://www.w3.org/2000/svg">
<path d="M0.426212 26.5634C-1.86812 41.8985 8.33524 51.9925 23.7519 51.9925C39.1686 51.9925 55.8726 40.4686 55.8726 24.8164C55.8726 9.16417 40.1246 0.746094 24.7079 0.746094C9.29121 0.746094 2.72054 11.2283 0.426212 26.5634Z" fill="#E54C31"/>
<g clip-path="url(#clip0_1_147)">
<mask id="mask0_1_147" style="mask-type:luminance" maskUnits="userSpaceOnUse" x="14" y="12" width="26" height="31">
<path d="M39.8856 12.0504H14.4233V42.1953H39.8856V12.0504Z" fill="white"/>
</mask>
<g mask="url(#mask0_1_147)">
<path fill-rule="evenodd" clip-rule="evenodd" d="M29.763 22.803C30.6903 22.3426 31.87 21.6648 33.0513 20.7361C33.3003 21.2513 33.3278 21.7006 33.1992 22.0634C33.1083 22.3191 32.9368 22.5416 32.7117 22.7186C32.4678 22.9097 32.163 23.0492 31.8262 23.1244C31.1871 23.2677 30.4408 23.1842 29.763 22.803ZM29.9238 27.5202L31.1512 28.2262C28.6451 29.625 27.9637 32.2223 27.1542 34.752C26.345 32.2223 25.6635 29.6248 23.1575 28.2262L24.3849 27.5202C24.6284 27.4285 24.7851 27.1912 24.7727 26.9321C24.6602 24.5629 25.3026 23.5151 26.1694 22.8574C26.48 22.6219 26.8194 22.5036 27.1542 22.5036C27.489 22.5036 27.8284 22.6219 28.139 22.8574C29.0055 23.5154 29.6479 24.5629 29.5356 26.9321C29.5233 27.1912 29.6805 27.4285 29.9238 27.5202ZM27.1545 12.0504C28.5733 12.0884 29.9957 12.3626 31.2301 12.8962C32.085 13.2662 32.8823 13.7547 33.6048 14.3392C33.9309 14.603 34.1995 14.8579 34.4954 15.1514C35.2933 15.1787 36.4595 14.2961 37.0009 13.4702C36.069 16.5119 31.8175 20.1036 28.8741 21.4782C28.873 21.4776 28.8722 21.477 28.8713 21.4765C28.3431 21.0748 27.749 20.8739 27.1547 20.8739C26.5606 20.8739 25.9664 21.0748 25.4382 21.4765C25.4374 21.477 25.4365 21.4779 25.4354 21.4782C22.4915 20.1036 18.2402 16.5116 17.3083 13.4702C17.8498 14.2961 19.0157 15.179 19.8136 15.1514C20.1094 14.8582 20.378 14.603 20.7042 14.3392C21.4263 13.7547 22.224 13.2662 23.0789 12.8962C24.3136 12.3626 25.7357 12.0884 27.1545 12.0504ZM24.546 22.803C23.6189 22.3426 22.439 21.6648 21.2576 20.7361C21.0087 21.2513 20.9812 21.7006 21.1094 22.0634C21.2004 22.3191 21.3719 22.5416 21.597 22.7186C21.8411 22.9097 22.1459 23.0492 22.4828 23.1244C23.1219 23.2677 23.8684 23.1842 24.546 22.803Z" fill="#FDF7E8"/>
<path fill-rule="evenodd" clip-rule="evenodd" d="M34.3453 19.5985C34.9956 18.945 35.5687 18.2217 36.0293 17.576L36.2634 18.0146C37.0167 19.5154 37.4082 21.0104 37.4082 22.6927L37.4066 25.3624L37.4206 26.7461C37.4751 30.1436 38.2135 33.5807 39.8857 36.7264L36.3869 33.917L33.9114 37.9173L31.3107 35.4793L27.1546 42.1955L22.9984 35.4796L20.3978 37.9176L17.9223 33.9173L14.4235 36.7267C16.0957 33.581 16.8338 30.1436 16.8886 26.7464L16.9026 25.3626L16.9009 22.693C16.9009 21.0104 17.2922 19.5157 18.0458 18.0148L18.2796 17.5763C18.7404 18.2217 19.3133 18.945 19.9636 19.5988L19.7604 20.0188C19.3657 20.8346 19.2352 21.7469 19.5426 22.6147C19.7407 23.1734 20.1022 23.6527 20.5684 24.0186C21.0211 24.3738 21.5569 24.6134 22.1177 24.7391C22.4832 24.821 22.8553 24.8548 23.2253 24.8434C23.139 25.3305 23.1011 25.8355 23.0989 26.3504L19.7985 28.2486L22.3453 29.6701C22.5488 29.7839 22.7428 29.9138 22.9246 30.0595C25.0243 31.9368 26.2868 37.4905 27.1543 40.2033C28.0218 37.4905 29.2843 31.9368 31.384 30.0595C31.5658 29.9141 31.7598 29.7839 31.9633 29.6701L34.5101 28.2486L31.2097 26.3504C31.2072 25.8355 31.1695 25.3305 31.0834 24.8434C31.4533 24.8548 31.8255 24.821 32.1909 24.7391C32.7517 24.6134 33.2875 24.3738 33.7402 24.0186C34.2064 23.6527 34.5679 23.1734 34.766 22.6147C35.0733 21.7472 34.9428 20.8349 34.5482 20.0188L34.3453 19.5985Z" fill="#FDF7E8"/>
</g>
</g>
<defs>
<clipPath id="clip0_1_147">
<rect width="25.6232" height="30.1449" fill="white" transform="translate(14.4233 12.0504)"/>
</clipPath>
</defs>
</svg>
