<svg width="57" height="52" viewBox="0 0 57 52" fill="none" xmlns="http://www.w3.org/2000/svg">
<path d="M55.7409 29.1389C58.0478 13.8757 49.2133 -0.00756836 33.7125 -0.00756836C18.2118 -0.00756836 0.336182 13.56 0.336182 29.1389C0.336182 44.7178 14.1675 51.9924 29.6682 51.9924C45.169 51.9924 53.4341 44.4022 55.7409 29.1389Z" fill="#E54C31"/>
<path fill-rule="evenodd" clip-rule="evenodd" d="M39.9335 14.3272C40.3319 14.1616 40.768 14.1044 41.1964 14.1618C41.6248 14.2191 42.0298 14.3887 42.3692 14.653C42.7087 14.9173 42.9702 15.2667 43.1265 15.6646C43.2828 16.0626 43.3283 16.4947 43.2581 16.9159L39.6014 38.8181C39.2467 40.9308 36.8991 42.1424 34.9369 41.09C33.2956 40.2096 30.8577 38.8531 28.665 37.4378C27.5686 36.7293 24.2101 34.4606 24.6229 32.8462C24.9776 31.4659 30.6207 26.2789 33.8454 23.195C35.111 21.9835 34.5338 21.2845 33.0392 22.399C29.3276 25.166 23.3685 29.3739 21.3982 30.5584C19.6601 31.6028 18.754 31.7811 17.6705 31.6028C15.6938 31.278 13.8606 30.7749 12.3643 30.162C10.3425 29.3341 10.4408 26.5893 12.3627 25.7901L39.9335 14.3272Z" fill="#FDF7E8"/>
</svg>
