<svg width="753" height="324" viewBox="0 0 753 324" fill="none" xmlns="http://www.w3.org/2000/svg">
<path d="M416.338 35.6885C409.052 24.0219 392.519 18.8756 385.304 18.3647C381.464 17.5841 378.776 25.488 377.193 29.3159C371.293 42.6279 359.089 70.4976 357.473 75.4806C355.452 81.7093 351.309 85.0168 362.986 92.8982C372.327 99.2032 379.231 95.8734 381.515 93.4204C386.032 86.6678 394.82 73.3997 403.69 60.0526C414.777 43.3687 417.663 37.8097 416.338 35.6885Z" fill="#E54C31"/>
<path d="M350.928 30.8426C347.106 28.8586 343.236 30.0838 341.778 30.9444C337.582 38.2489 330.752 54.2869 337.003 60.0023C344.817 67.1465 348.312 60.4148 348.826 58.2559C349.341 56.097 351.912 45.3024 354.392 40.5252C356.872 35.7479 355.705 33.3227 350.928 30.8426Z" fill="#E54C31"/>
<path d="M389.143 102.991C391.879 106.932 396.33 107.735 398.214 107.644C406.144 102.626 421.208 90.3679 418.016 81.4873C414.027 70.3865 407.085 75.2053 405.457 77.0658L405.457 77.0658C403.828 78.9264 395.686 88.2288 390.759 91.6485C385.833 95.0682 385.723 98.0646 389.143 102.991Z" fill="#E54C31"/>
<path d="M708.819 291.514L684.396 285.955L688.002 268.93L712.708 274.905L708.819 291.514ZM713.814 266.26L688.726 260.393C688.709 258.583 688.486 256.914 688.436 255.278C687.451 231.053 686.921 218.662 715.317 201.483C744.751 183.599 690.862 184.713 687.315 192.893L681.571 169.929C693.381 162.963 707.043 160.507 721.202 163.025C750.567 168.261 755.321 201.157 735.314 210.356C707.574 223.141 710.76 244.352 713.814 266.26Z" fill="#1A1A1A"/>
<path d="M667.104 282.127L646.257 284.765L640.649 220.21L624.08 221.476L623.196 202.723L675.158 200.017L675.592 219.053L660.63 219.684L667.104 282.127Z" fill="#1A1A1A"/>
<path d="M615.126 270.525C609.143 280.054 604.162 285.192 592.74 286.669C556.839 288.994 566.632 228.296 566.339 215.566L583.932 216.227C583.995 237.565 578.502 267.912 599.407 265.865C615.823 264.256 603.18 227.696 602.698 220.351L621.195 218.062L634.869 282.184C633.711 282.536 621.921 285.122 621.19 284.955L615.126 270.525Z" fill="#1A1A1A"/>
<path d="M533.049 293.828C502.161 298.642 483.533 266.723 492.432 239.499C497.125 225.327 509.129 216.401 521.849 214.797C543.771 212.172 559.132 230.223 561.782 251.188C564.175 270.747 555.63 291.854 533.049 293.828ZM530.715 233.483C504.798 220.879 506.35 276.888 528.553 274.713C546.978 272.908 542.969 240.51 530.715 233.483Z" fill="#1A1A1A"/>
<path d="M428.308 312.993L425.501 291.853C436.363 292.426 453.862 295.233 460.642 282.648C465.862 254.535 414.708 269.286 412.513 238.506C410.395 210.166 437.642 207.319 460.15 204.317C463.862 225.122 463.867 225.275 463.867 225.275C447.722 221.815 428.425 229.756 440.682 240.669C460.045 254.108 481.497 246.709 484.089 280.379C486.149 306.888 455.18 312.754 428.308 312.993Z" fill="#E54C31"/>
<path d="M397.722 309.073L381.522 250.787L370.981 289.301L345.163 289.049L327.224 257.85L322.924 310.217C322.928 310.369 308.921 311.729 297.464 311.633L305.923 212.096L326.643 210.524C327.941 212.927 353.841 254.412 356.646 256.156L365.294 215.716L399.245 212.352L421.225 303.748L397.722 309.073Z" fill="#E54C31"/>
<path d="M237.579 320.094L225.154 216.941C225.154 216.941 225.754 216.616 278.142 211.905L281.297 234.408L249.882 235.86L251.747 251.379L271.744 251.052L272.419 272.412L254.568 272.976L258.252 292.866C261.608 292.76 289.061 291.587 290.902 291.834L292.922 312.235L237.579 320.094Z" fill="#E54C31"/>
<path d="M174.293 322.095L161.867 218.942C161.867 218.942 162.468 218.618 214.855 213.907L218.01 236.41L186.596 237.861L188.461 253.38L208.457 253.053L209.133 274.413L191.282 274.978L194.965 294.868C198.322 294.762 225.775 293.588 227.615 293.835L229.635 314.236L174.293 322.095Z" fill="#E54C31"/>
<path d="M85.4221 323.378L75.3026 215.876L104.138 214.964C105.345 228.977 106.099 243.156 107.158 257.326L127.888 256.059C127.967 248.879 125.586 231.544 126.134 219.919L154.689 219.78L160.361 317.038L139.66 319.219C138.286 304.754 137.833 290.413 136.306 275.952L106.823 280.55L110.533 320.599L85.8798 323.364C85.8798 323.364 85.5747 323.373 85.4221 323.378Z" fill="#E54C31"/>
<path d="M73.637 307.868C37.3212 323.372 7.20995 317.758 2.34504 274.996C-3.41965 223.1 50.4424 221.55 65.2387 225.816L63.7752 251.978L63.6178 251.83C48.078 248.198 30.3702 248.453 31.1277 272.406C31.9721 299.106 56.1354 285.666 67.0481 283.03L73.637 307.868Z" fill="#E54C31"/>
<path d="M607.344 195.217L603.058 118.242C603.058 118.242 603.443 118.018 636.246 115.991L637.458 132.796L617.833 132.991L618.476 144.571L630.947 144.89L630.652 160.776L619.51 160.694L621.139 175.572C623.234 175.588 640.38 175.487 641.519 175.723L642.094 190.934L607.344 195.217Z" fill="#1A1A1A"/>
<path d="M551.923 193.672L549.219 113.531L567.218 113.665C567.501 124.107 567.495 134.661 567.681 145.217L580.641 144.859C580.93 139.527 580.027 126.583 580.759 117.964L598.557 118.663L598.833 191.068L585.86 192.107C585.489 181.323 585.687 170.657 585.22 159.873L566.694 162.459L567.664 192.313L552.209 193.674C552.209 193.674 552.018 193.672 551.923 193.672Z" fill="#1A1A1A"/>
<path d="M534.953 191.504L518.852 191.725L518.96 134.529L508.876 133.887L508.843 115.162L546.365 115.44L544.464 135.739L533.906 134.98L534.953 191.504Z" fill="#1A1A1A"/>
<path d="M479.599 197.475L461.72 198.547L460.581 143.326L446.417 143.47L446.721 127.47L491.067 128.092L490.366 144.307L477.604 144.002L479.599 197.475Z" fill="#1A1A1A"/>
<path d="M414.753 199.526L406.519 131.17C406.519 131.17 406.917 130.955 441.632 127.833L443.723 142.745L422.906 143.707L424.142 153.991L437.393 153.774L437.84 167.929L426.011 168.303L428.452 181.483C430.676 181.413 448.869 180.635 450.088 180.799L451.426 194.318L414.753 199.526Z" fill="#1A1A1A"/>
<path d="M373.431 192.332L365.661 132.26L382.933 127.969L388.387 172.428L388.595 172.623L406.505 169.325L409.896 186.928L373.431 192.332Z" fill="#1A1A1A"/>
<path d="M272.865 144.294C271.609 109.734 282.26 82.3418 314.682 81.1738C342.514 80.1712 354.242 107.602 354.852 134.926C355.469 167.821 335.53 186.263 314.99 188.354C294.74 190.265 274.051 176.324 272.865 144.294ZM295.825 138.572C296.218 152.737 303.878 161.745 314.537 161.361C338.668 160.492 338.624 110.865 313.802 108.214C302.255 108.63 295.657 121.866 295.825 138.572Z" fill="#1A1A1A"/>
<path d="M196.99 203.914L187.171 85.0919L215.151 84.084C216.322 99.5718 217.054 115.244 218.081 130.906L238.197 129.506C238.273 121.57 235.962 102.409 236.495 89.5609L264.203 89.4068L269.706 196.906L249.619 199.318C248.286 183.329 247.846 167.477 246.365 151.494L217.757 156.576L221.357 200.842L197.434 203.898C197.434 203.898 197.138 203.909 196.99 203.914Z" fill="#1A1A1A"/>
<path d="M82.9627 205.49L64.3614 111.967L86.4791 107.963L95.3374 160.142L95.6382 160.3L103.264 109.384L127.366 102.101L146.779 160.821L157.774 97.7985L183.333 105.656L164.536 191.917L134.822 194.506L117.672 153.261L110.295 202.48L82.9627 205.49Z" fill="#1A1A1A"/>
</svg>
