<svg width="55" height="51" viewBox="0 0 55 51" fill="none" xmlns="http://www.w3.org/2000/svg">
<path d="M54.1482 28.586C56.3819 13.6162 47.8275 0 32.8182 0C17.8089 0 0.5 13.3067 0.5 28.586C0.5 43.8653 13.8928 51 28.9021 51C43.9114 51 51.9145 43.5557 54.1482 28.586Z" fill="#1A1A1A"/>
<path d="M41.7993 27.2038C42.248 26.7519 42.5 26.1394 42.5 25.5008C42.5 24.8622 42.248 24.2497 41.7993 23.7978L32.765 14.7061C32.3155 14.254 31.7059 14 31.0703 14C30.4346 14 29.825 14.254 29.3755 14.7061C28.9261 15.1582 28.6735 15.7713 28.6735 16.4107C28.6735 17.05 28.9261 17.6632 29.3755 18.1153L34.3208 23.0909L15.8959 23.0909C15.2605 23.0909 14.6511 23.3448 14.2018 23.7967C13.7524 24.2487 13.5 24.8617 13.5 25.5008C13.5 26.1399 13.7524 26.7529 14.2018 27.2049C14.6511 27.6568 15.2605 27.9107 15.8959 27.9107L34.3208 27.9107L29.3755 32.8847C29.153 33.1086 28.9764 33.3743 28.856 33.6668C28.7355 33.9593 28.6735 34.2728 28.6735 34.5893C28.6735 34.9059 28.7355 35.2194 28.856 35.5119C28.9764 35.8043 29.153 36.0701 29.3755 36.2939C29.5981 36.5178 29.8623 36.6954 30.1531 36.8165C30.4439 36.9376 30.7555 37 31.0703 37C31.385 37 31.6967 36.9376 31.9874 36.8165C32.2782 36.6954 32.5424 36.5178 32.765 36.2939L41.7993 27.2038Z" fill="#FDF7E8"/>
</svg>
