<svg width="54" height="51" viewBox="0 0 54 51" fill="none" xmlns="http://www.w3.org/2000/svg">
<path d="M53.6482 28.586C55.8819 13.6162 47.3275 0 32.3182 0C17.3089 0 0 13.3067 0 28.586C0 43.8653 13.3928 51 28.4021 51C43.4114 51 51.4145 43.5557 53.6482 28.586Z" fill="#1A1A1A"/>
<path d="M32.32 12.6665H27.128C24.776 12.6665 22.912 12.6665 21.4547 12.8638C19.9533 13.0665 18.7387 13.4932 17.7813 14.4545C16.8227 15.4158 16.3973 16.6358 16.196 18.1425C16 19.6065 16 21.4772 16 23.8385V31.6225C16 33.6332 17.2267 35.3558 18.9693 36.0785C18.88 34.8652 18.88 33.1652 18.88 31.7492V25.0692C18.88 23.3612 18.88 21.8878 19.0373 20.7092C19.2067 19.4452 19.588 18.2345 20.5667 17.2518C21.5453 16.2692 22.752 15.8865 24.0107 15.7158C25.184 15.5585 26.6507 15.5585 28.3533 15.5585H32.4467C34.148 15.5585 35.612 15.5585 36.7867 15.7158C36.4348 14.8176 35.8204 14.0462 35.0237 13.5022C34.2269 12.9583 33.2847 12.667 32.32 12.6665Z" fill="#FDF7E8"/>
<path d="M20.8 25.196C20.8 21.5614 20.8 19.744 21.9254 18.6147C23.0494 17.4854 24.8587 17.4854 28.48 17.4854H32.32C35.94 17.4854 37.7507 17.4854 38.876 18.6147C40.0014 19.744 40 21.5614 40 25.196V31.6227C40 35.2574 40 37.0747 38.876 38.204C37.7507 39.3334 35.94 39.3334 32.32 39.3334H28.48C24.86 39.3334 23.0494 39.3334 21.9254 38.204C20.8 37.0747 20.8 35.2574 20.8 31.6227V25.196Z" fill="#FDF7E8"/>
</svg>
